<?xml version="1.0" standalone="no"?>
  <!DOCTYPE svg PUBLIC "-//W3C//DTD SVG 1.1//EN" "http://www.w3.org/Graphics/SVG/1.1/DTD/svg11.dtd" >
  <svg>
  <metadata>
  Created by font-carrier
  </metadata>
  <defs>
  <font id="315karusel-Bold" horiz-adv-x="3405" vert-adv-y="3405" >
    <font-face
      
      font-family="315karusel"
      
      font-weight="400"
      
      font-stretch="normal"
      
      units-per-em="2048"
      
      ascent="1788"
      
      descent="-489"
      
    />
      <missing-glyph />

      

      
      <glyph glyph-name="uni21" unicode="&#x21;" d="M133 989C133 873 148 761 178 653C193.33 591.67 212.50 546 235.50 516C258.50 486 292.67 471 338 471C383.33 471 417.17 485.67 439.50 515C461.83 544.33 481.33 590.33 498 653C528 761 543 867.67 543 973C542.33 1093 536.67 1179 526 1231C515.33 1287 495.33 1328 466 1354C436.67 1380 394.67 1393 340 1393C285.33 1393 243 1380.33 213 1355C183 1329.67 162 1288.33 150 1231C138.67 1179 133 1098.33 133 989ZM139 186C139 127.33 157.83 81.67 195.50 49C233.17 16.33 280.67 0 338 0C394 0 440.83 16.33 478.50 49C516.17 81.67 535 127.33 535 186C535 242 515.83 287.17 477.50 321.50C439.17 355.83 392.67 373 338 373C280.67 373 233.17 356.17 195.50 322.50C157.83 288.83 139 243.33 139 186Z"  horiz-adv-x="673" vert-adv-y="2048"  />

      
      <glyph glyph-name="uni22" unicode="&#x22;" d="M41 1040C41 988 46.83 934.83 58.50 880.50C70.17 826.17 90 776.83 118 732.50C146 688.17 179.83 666 219.50 666C259.17 666 292.83 688.17 320.50 732.50C348.17 776.83 367.83 826.17 379.50 880.50C391.17 934.83 397 988 397 1040C397 1076 395 1106.83 391 1132.50C387 1158.17 379.50 1184 368.50 1210C357.50 1236 339.33 1255.83 314 1269.50C288.67 1283.17 257 1290 219 1290C181 1290 149.33 1283.17 124 1269.50C98.67 1255.83 80.50 1236 69.50 1210C58.50 1184 51 1158 47 1132C43 1106 41 1075.33 41 1040ZM481 1040C481 988 486.83 934.83 498.50 880.50C510.17 826.17 530 776.83 558 732.50C586 688.17 619.83 666 659.50 666C699.17 666 733 688.17 761 732.50C789 776.83 808.83 826.17 820.50 880.50C832.17 934.83 838 988 838 1040C838 1076 835.83 1106.83 831.50 1132.50C827.17 1158.17 819.67 1184 809 1210C798.33 1236 780.33 1255.83 755 1269.50C729.67 1283.17 697.83 1290 659.50 1290C621.17 1290 589.33 1283.17 564 1269.50C538.67 1255.83 520.67 1236 510 1210C499.33 1184 491.83 1158 487.50 1132C483.17 1106 481 1075.33 481 1040Z"  horiz-adv-x="878" vert-adv-y="2048"  />

      
      <glyph glyph-name="uni27" unicode="&#x27;" d="M41 1040C41 988 46.83 934.83 58.50 880.50C70.17 826.17 90 776.83 118 732.50C146 688.17 179.83 666 219.50 666C259.17 666 292.83 688.17 320.50 732.50C348.17 776.83 367.83 826.17 379.50 880.50C391.17 934.83 397 988 397 1040C397 1076 395 1106.83 391 1132.50C387 1158.17 379.50 1184 368.50 1210C357.50 1236 339.33 1255.83 314 1269.50C288.67 1283.17 257 1290 219 1290C181 1290 149.33 1283.17 124 1269.50C98.67 1255.83 80.50 1236 69.50 1210C58.50 1184 51 1158 47 1132C43 1106 41 1075.33 41 1040Z"  horiz-adv-x="438" vert-adv-y="2048"  />

      
      <glyph glyph-name="uni2c" unicode="&#x2c;" d="M82 193C82 141 97.33 96.83 128 60.50C158.67 24.17 202.67 4 260 0C252-44 224-85.67 176-125C170.67-129 164.50-134.17 157.50-140.50C150.50-146.83 145.33-151.33 142-154C138.67-156.67 135-160 131-164C127-168 124.33-171.33 123-174C121.67-176.67 121-180 121-184C121-199.33 126.33-215.17 137-231.50C147.67-247.83 163.33-256 184-256C236-256 290-235 346-193C456.67-109 512-3.67 512 123C512 205 490.50 269.50 447.50 316.50C404.50 363.50 351.67 387 289 387C230.33 387 181.17 369.67 141.50 335C101.83 300.33 82 253 82 193Z"  horiz-adv-x="573" vert-adv-y="2048"  />

      
      <glyph glyph-name="uni2d" unicode="&#x2d;" d="M61 565.50C61 464.50 123.33 414 248 414L592 414C716 413.33 778 464.33 778 567C778 667 716 717 592 717L248 717C123.33 717 61 666.50 61 565.50Z"  horiz-adv-x="839" vert-adv-y="2048"  />

      
      <glyph glyph-name="uni2e" unicode="&#x2e;" d="M82 186C82 127.33 100.83 81.67 138.50 49C176.17 16.33 223.67 0 281 0C337 0 383.67 16.33 421 49C458.33 81.67 477 127.33 477 186C477 242 458 287.17 420 321.50C382 355.83 335.67 373 281 373C223.67 373 176.17 356.17 138.50 322.50C100.83 288.83 82 243.33 82 186Z"  horiz-adv-x="559" vert-adv-y="2048"  />

      
      <glyph glyph-name="uni30" unicode="&#x30;" d="M61 659C61 463.67 108.83 303 204.50 177C300.17 51 438-12 618-12C800-12 938.50 50.67 1033.50 176C1128.50 301.33 1176 462.33 1176 659C1176 843.67 1127.83 996.33 1031.50 1117C935.17 1237.67 797.50 1298 618.50 1298C439.50 1298 301.83 1237.50 205.50 1116.50C109.17 995.50 61 843 61 659ZM436 659C436 899 496.83 1019 618.50 1019C740.17 1019 801 899 801 659C801 398.33 740.17 268 618.50 268C496.83 268 436 398.33 436 659Z"  horiz-adv-x="1236" vert-adv-y="2048"  />

      
      <glyph glyph-name="uni31" unicode="&#x31;" d="M41 852C41 810 53.33 777.67 78 755C102.67 732.33 135.33 721 176 721C198 721 221 727.83 245 741.50C269 755.17 287.67 768.17 301 780.50C314.33 792.83 334.67 812.67 362 840L463 940C450.33 825.33 443.33 734 442 666C437.33 438.67 441.67 277.33 455 182C464.33 118 482.33 71.67 509 43C535.67 14.33 574.33 0 625 0C679.67 0 722.33 14.33 753 43C783.67 71.67 803.67 118 813 182C827 274 834 435.33 834 666C833.33 870.67 826.33 1014 813 1096C797.67 1230.67 730.67 1298 612 1298C540 1298 457.83 1271 365.50 1217C273.17 1163 197.67 1103.33 139 1038C73.67 964.67 41 902.67 41 852Z"  horiz-adv-x="976" vert-adv-y="2048"  />

      
      <glyph glyph-name="uni32" unicode="&#x32;" d="M102 145C102 111 115.33 79.67 142 51C168.67 22.33 210 6 266 2C364.67-6 484.33-10 625-10C693-10 782.33-5.33 893 4C1055.67 17.33 1137 91 1137 225C1137 330.33 1094.67 383 1010 383C984 383 933.83 364.17 859.50 326.50C785.17 288.83 719.33 270 662 270C624.67 270 606 281 606 303C606 309.67 608.50 316.50 613.50 323.50C618.50 330.50 623.33 335.67 628 339L650 354C660.67 361.33 668 367 672 371C806.67 470.33 906.83 560.33 972.50 641C1038.17 721.67 1071 815.33 1071 922C1071 1034 1027.67 1126.17 941 1198.50C854.33 1270.83 736 1307 586 1307C452 1307 339.33 1274.50 248 1209.50C156.67 1144.50 111 1069 111 983C111 941 123.50 901.83 148.50 865.50C173.50 829.17 208.67 811 254 811C329.33 811 381.33 841.67 410 903C442.67 971.67 485.67 1006 539 1006C574.33 1006 603.67 992.17 627 964.50C650.33 936.83 662 902 662 860C662 723.33 524.67 554.67 250 354C199.33 317.33 162 283.50 138 252.50C114 221.50 102 185.67 102 145Z"  horiz-adv-x="1239" vert-adv-y="2048"  />

      
      <glyph glyph-name="uni33" unicode="&#x33;" d="M102 283C102 198.33 153.83 128.67 257.50 74C361.17 19.33 480-8 614-8C671.33-8 727.33-2.17 782 9.50C836.67 21.17 890.67 40.17 944 66.50C997.33 92.83 1040 131.33 1072 182C1104 232.67 1120 292.67 1120 362C1120 430.67 1097.50 490.50 1052.50 541.50C1007.50 592.50 946.67 630.33 870 655C940 679.67 996.17 719.50 1038.50 774.50C1080.83 829.50 1102 891.67 1102 961C1102 1035.67 1076.33 1099.67 1025 1153C973.67 1206.33 913.67 1243.83 845 1265.50C776.33 1287.17 703.67 1298 627 1298C493 1298 377.83 1271.83 281.50 1219.50C185.17 1167.17 137 1100.67 137 1020C137 986 148.67 956 172 930C195.33 904 223.33 891 256 891C284.67 891 314.33 900.83 345 920.50C375.67 940.17 409.67 959.67 447 979C484.33 998.33 527 1008 575 1008C617.67 1008 651 996.33 675 973C699 949.67 711 920.33 711 885C711 857.67 699.67 834 677 814C654.33 794 626.67 784 594 784C578.67 784 553 785.50 517 788.50C481 791.50 453.33 793 434 793C352 793 311 747.17 311 655.50C311 563.83 352 518 434 518C453.33 518 479.67 519.33 513 522C546.33 524.67 570.67 526 586 526C629.33 526 664.67 516.50 692 497.50C719.33 478.50 733 452.67 733 420C733 378.67 718.67 346.17 690 322.50C661.33 298.83 621.67 287 571 287C507 287 442.83 308.83 378.50 352.50C314.17 396.17 265.67 418 233 418C196.33 418 165.33 404.33 140 377C114.67 349.67 102 318.33 102 283Z"  horiz-adv-x="1222" vert-adv-y="2048"  />

      
      <glyph glyph-name="uni34" unicode="&#x34;" d="M61 385C61 278.33 163 225 367 225C479 225 592.33 234.67 707 254C708.33 216.67 713.67 181 723 147C739.67 49 795.67 0 891 0C985 0 1040.33 49 1057 147C1070.33 201.67 1077 279.67 1077 381C1077 476.33 1070.33 549.33 1057 600C1040.33 698.67 984.33 748 889 748C796.33 747.33 741 698 723 600C713.67 568.67 708.33 537.33 707 506C663 499.33 624 496 590 496C522.67 496 489 516.33 489 557C489 589.67 517.67 643 575 717C625.67 779.67 722.67 888.67 866 1044C918 1100.67 944 1146 944 1180C944 1210 929.33 1235.83 900 1257.50C870.67 1279.17 822.67 1290 756 1290C738 1290 720.83 1289 704.50 1287C688.17 1285 673.50 1282.33 660.50 1279C647.50 1275.67 634.17 1270.83 620.50 1264.50C606.83 1258.17 595.83 1253 587.50 1249C579.17 1245 569.67 1238.33 559 1229L535 1207C529 1202.33 521.67 1194.50 513 1183.50C504.33 1172.50 498.67 1164.67 496 1160C493.33 1155.33 487.50 1147.17 478.50 1135.50C469.50 1123.83 464.33 1116.67 463 1114C379.67 1000.67 287.33 858.67 186 688L120 572C108 551.33 95.17 522.50 81.50 485.50C67.83 448.50 61 415 61 385Z"  horiz-adv-x="1179" vert-adv-y="2048"  />

      
      <glyph glyph-name="uni35" unicode="&#x35;" d="M82 283C82 212.33 130.50 146.17 227.50 84.50C324.50 22.83 444-8 586-8C726.67-8 848.83 32.17 952.50 112.50C1056.17 192.83 1108 302.67 1108 442C1108 486 1101.17 529.83 1087.50 573.50C1073.83 617.17 1051.33 661.17 1020 705.50C988.67 749.83 942.33 786 881 814C819.67 842 746.67 856 662 856C644 856 625 855 605 853L557 848C544.33 846.67 535.33 846.67 530 848C511.33 850.67 498.83 857.50 492.50 868.50C486.17 879.50 483 900 483 930C483 1006 520 1044 594 1044C663.33 1044 736.17 1030.17 812.50 1002.50C888.83 974.83 934.67 961 950 961C1030.67 961 1071 1008.67 1071 1104C1071 1233.33 998.67 1298 854 1298C624.67 1298 473.67 1294.67 401 1288C327.67 1281.33 276.50 1265.50 247.50 1240.50C218.50 1215.50 198.67 1180.33 188 1135C172 1064.33 164 992 164 918C164 827.33 168.67 754.67 178 700C193.33 618.67 242 578 324 578C340 578 368.50 582.33 409.50 591C450.50 599.67 486 604 516 604C586 604 637.67 587.67 671 555C704.33 522.33 721 484 721 440C721 394 704 357 670 329C636 301 596.33 287 551 287C489.67 287 426.17 308.83 360.50 352.50C294.83 396.17 245.67 418 213 418C172.33 418 140.33 405.33 117 380C93.67 354.67 82 322.33 82 283Z"  horiz-adv-x="1189" vert-adv-y="2048"  />

      
      <glyph glyph-name="uni36" unicode="&#x36;" d="M82 637C82 428.33 128 267 220 153C312 39 443.33-18 614-18C762-18 884.67 22.83 982 104.50C1079.33 186.17 1128 293.33 1128 426C1128 556 1086.50 655.33 1003.50 724C920.50 792.67 825.67 827 719 827C603 827 508.67 797.67 436 739C436 832.33 462.67 899.33 516 940C569.33 980.67 631.33 1001 702 1001C746 1001 791.83 992.83 839.50 976.50C887.17 960.17 922 952 944 952C978 952 1005 964.33 1025 989C1045 1013.67 1055 1042.33 1055 1075C1055 1149 1021.50 1206.17 954.50 1246.50C887.50 1286.83 802 1307 698 1307C523.33 1307 377 1247.17 259 1127.50C141 1007.83 82 844.33 82 637ZM469 405.50C469 450.50 481.83 488 507.50 518C533.17 548 568.67 563 614 563C658 563 693.33 547.83 720 517.50C746.67 487.17 760 450 760 406C760 360.67 746.67 323 720 293C693.33 263 658 248 614 248C569.33 248 534 263 508 293C482 323 469 360.50 469 405.50Z"  horiz-adv-x="1230" vert-adv-y="2048"  />

      
      <glyph glyph-name="uni37" unicode="&#x37;" d="M41 1075C41 957.67 84 899 170 899C200 899 234.50 909.67 273.50 931C312.50 952.33 359 973.17 413 993.50C467 1013.83 527.33 1024 594 1024C637.33 1024 659 1008.33 659 977C659 970.33 657.67 962.83 655 954.50C652.33 946.17 647.67 937 641 927L624 901C618.67 893.67 611 883.67 601 871L580 844C567.33 826 548.67 801 524 769L467 692C453 673.33 435.50 647.17 414.50 613.50C393.50 579.83 372.67 544.67 352 508C271.33 363.33 231 252 231 174C231 124.67 247.17 83.33 279.50 50C311.83 16.67 359.33 0 422 0C548 0 628 76.33 662 229C709.33 450.33 800.67 664 936 870L982 937L1022 995C1030 1007.67 1038.83 1022.83 1048.50 1040.50C1058.17 1058.17 1064.67 1074.17 1068 1088.50C1071.33 1102.83 1073 1118.33 1073 1135C1073 1171.67 1057.67 1204.67 1027 1234C996.33 1263.33 952.33 1280.67 895 1286C787 1294 718 1298 688 1298C525.33 1298 409.33 1296 340 1292C238.67 1286.67 163.50 1263.83 114.50 1223.50C65.50 1183.17 41 1133.67 41 1075Z"  horiz-adv-x="1093" vert-adv-y="2048"  />

      
      <glyph glyph-name="uni38" unicode="&#x38;" d="M102 362C102 295.33 117.83 237.17 149.50 187.50C181.17 137.83 223.17 99.33 275.50 72C327.83 44.67 383.33 24.50 442 11.50C500.67-1.50 562.17-8 626.50-8C690.83-8 752.33-1.50 811 11.50C869.67 24.50 925.33 44.67 978 72C1030.67 99.33 1072.67 137.83 1104 187.50C1135.33 237.17 1151 295.33 1151 362C1151 493.33 1082.67 591 946 655C1063.33 725 1122 822 1122 946C1122 1062 1073.67 1149.67 977 1209C880.33 1268.33 763.67 1298 627 1298C539.67 1298 459.83 1286.17 387.50 1262.50C315.17 1238.83 254.33 1199.33 205 1144C155.67 1088.67 131 1021.33 131 942C131 823.33 196.67 727.67 328 655C177.33 593.67 102 496 102 362ZM473 391.50C473 437.83 487 474.67 515 502C543 529.33 580.17 543 626.50 543C672.83 543 710 529.33 738 502C766 474.67 780 437.83 780 391.50C780 345.17 766 308.33 738 281C710 253.67 672.83 240 626.50 240C580.17 240 543 253.67 515 281C487 308.33 473 345.17 473 391.50ZM479 929.50C479 975.83 492 1012 518 1038C544 1064 580.17 1077 626.50 1077C672.83 1077 709 1064.33 735 1039C761 1013.67 774 977.83 774 931.50C774 885.17 761 849.33 735 824C709 798.67 672.83 786 626.50 786C580.17 786 544 798.33 518 823C492 847.67 479 883.17 479 929.50Z"  horiz-adv-x="1253" vert-adv-y="2048"  />

      
      <glyph glyph-name="uni39" unicode="&#x39;" d="M102 862C102 732 143.67 632.67 227 564C310.33 495.33 405.33 461 512 461C628 461 722.33 490.33 795 549C795 456.33 768.17 389.50 714.50 348.50C660.83 307.50 598.67 287 528 287C484.67 287 439.17 295.17 391.50 311.50C343.83 327.83 309 336 287 336C251 336 223.50 323.67 204.50 299C185.50 274.33 176 245.67 176 213C176 139 209.33 82 276 42C342.67 2 428-18 532-18C707.33-18 854 41.67 972 161C1090 280.33 1149 443.67 1149 651C1149 860.33 1102.83 1022 1010.50 1136C918.17 1250 786.67 1307 616 1307C468.67 1307 346.17 1266 248.50 1184C150.83 1102 102 994.67 102 862ZM471 883C471 928.33 484.17 965.83 510.50 995.50C536.83 1025.17 572 1040 616 1040C661.33 1040 697 1025 723 995C749 965 762 927.50 762 882.50C762 837.50 749 800 723 770C697 740 661.33 725 616 725C572.67 725 537.67 740.33 511 771C484.33 801.67 471 839 471 883Z"  horiz-adv-x="1210" vert-adv-y="2048"  />

      
      <glyph glyph-name="uni3a" unicode="&#x3a;" d="M90 186C90 127.33 108.83 81.67 146.50 49C184.17 16.33 231.67 0 289 0C345 0 391.67 16.33 429 49C466.33 81.67 485 127.33 485 186C485 242 466 287.17 428 321.50C390 355.83 343.67 373 289 373C231.67 373 184.17 356.17 146.50 322.50C108.83 288.83 90 243.33 90 186ZM90 782C90 723.33 108.83 677.67 146.50 645C184.17 612.33 231.67 596 289 596C345 596 391.67 612.33 429 645C466.33 677.67 485 723.33 485 782C485 838 466 883.17 428 917.50C390 951.83 343.67 969 289 969C231.67 969 184.17 952.17 146.50 918.50C108.83 884.83 90 839.33 90 782Z"  horiz-adv-x="573" vert-adv-y="2048"  />

      
      <glyph glyph-name="uni3b" unicode="&#x3b;" d="M82 193C82 141 97.33 96.83 128 60.50C158.67 24.17 202.67 4 260 0C252-44 224-85.67 176-125C170.67-129 164.50-134.17 157.50-140.50C150.50-146.83 145.33-151.33 142-154C138.67-156.67 135-160 131-164C127-168 124.33-171.33 123-174C121.67-176.67 121-180 121-184C121-199.33 126.33-215.17 137-231.50C147.67-247.83 163.33-256 184-256C236-256 290-235 346-193C456.67-109 512-3.67 512 123C512 205 490.50 269.50 447.50 316.50C404.50 363.50 351.67 387 289 387C230.33 387 181.17 369.67 141.50 335C101.83 300.33 82 253 82 193ZM90 782C90 723.33 108.83 677.67 146.50 645C184.17 612.33 231.67 596 289 596C345 596 391.67 612.33 429 645C466.33 677.67 485 723.33 485 782C485 838 466 883.17 428 917.50C390 951.83 343.67 969 289 969C231.67 969 184.17 952.17 146.50 918.50C108.83 884.83 90 839.33 90 782Z"  horiz-adv-x="573" vert-adv-y="2048"  />

      
      <glyph glyph-name="uni3f" unicode="&#x3f;" d="M41 1085C41 1043 53.17 1005.33 77.50 972C101.83 938.67 137.33 922 184 922C237.33 922 280.33 951.33 313 1010C347 1070 390 1100 442 1100C470.67 1100 494 1088 512 1064C530 1040 539 1008.33 539 969C538.33 878.33 477.33 788.67 356 700C310 667.33 287 630.67 287 590C287 560 297.83 535 319.50 515C341.17 495 374.67 485 420 485C528 485 639.67 536.83 755 640.50C870.33 744.17 928 864.33 928 1001C928 1121.67 887.33 1217.17 806 1287.50C724.67 1357.83 615 1393 477 1393C361 1393 259.33 1362.50 172 1301.50C84.67 1240.50 41 1168.33 41 1085ZM295 186C295 127.33 313.83 81.67 351.50 49C389.17 16.33 436.67 0 494 0C550 0 596.67 16.33 634 49C671.33 81.67 690 127.33 690 186C690 242 671 287.17 633 321.50C595 355.83 548.67 373 494 373C436.67 373 389.17 356.17 351.50 322.50C313.83 288.83 295 243.33 295 186Z"  horiz-adv-x="989" vert-adv-y="2048"  />

      
      <glyph glyph-name="uni41" unicode="&#x41;" d="M61 176C61 58.67 135 0 283 0C318.33 0 349.33 4.50 376 13.50C402.67 22.50 423.17 32.33 437.50 43C451.83 53.67 464.50 70 475.50 92C486.50 114 493.67 130.83 497 142.50C500.33 154.17 504.67 172.33 510 197C515.33 224.33 521.67 242 529 250C536.33 258 551 262 573 262L956 262C972.67 262 984.83 257.33 992.50 248C1000.17 238.67 1006.67 221.67 1012 197C1018.67 168.33 1024.67 145.67 1030 129C1035.33 112.33 1045.83 92.17 1061.50 68.50C1077.17 44.83 1099.67 27.50 1129 16.50C1158.33 5.50 1195 0 1239 0C1285.67 0 1324.67 5.17 1356 15.50C1387.33 25.83 1410.17 40.50 1424.50 59.50C1438.83 78.50 1448.33 96.83 1453 114.50C1457.67 132.17 1460 152.67 1460 176C1460 259.33 1428.17 393.83 1364.50 579.50C1300.83 765.17 1234.33 914.67 1165 1028C1117.67 1107.33 1079.33 1163.67 1050 1197C1020.67 1230.33 983.50 1256.33 938.50 1275C893.50 1293.67 834 1303 760 1303C657.33 1303 581.33 1285.50 532 1250.50C482.67 1215.50 424 1141.33 356 1028C286.67 913.33 220.17 763.50 156.50 578.50C92.83 393.50 61 259.33 61 176ZM594 580C594 612.67 601.33 654.33 616 705C639.33 785 661.67 843.83 683 881.50C704.33 919.17 730.67 938 762 938C792 938 817.83 919 839.50 881C861.17 843 883 784.33 905 705C919 653 926 611.33 926 580C926 542.67 904 524 860 524L668 524C618.67 524.67 594 543.33 594 580Z"  horiz-adv-x="1521" vert-adv-y="2048"  />

      
      <glyph glyph-name="uni42" unicode="&#x42;" d="M164 647C164 447.67 172 287.33 188 166C200.67 66 273.33 10.67 406 0C492-8 608-12 754-12C834-12 907.83-5.83 975.50 6.50C1043.17 18.83 1106.33 38.50 1165 65.50C1223.67 92.50 1269.50 131.83 1302.50 183.50C1335.50 235.17 1352 296.33 1352 367C1352 485.67 1300.67 571 1198 623C1166.67 637.67 1139.33 648.33 1116 655L1116 664C1153.33 686 1178 701.67 1190 711C1270.67 772.33 1311 855.67 1311 961C1310.33 1189 1120.33 1303 741 1303C602.33 1302.33 490.67 1298 406 1290C272.67 1278.67 200 1224.67 188 1128C172 1006.67 164 846.33 164 647ZM596 385C596 453 605.50 497.33 624.50 518C643.50 538.67 678.33 549 729 549C786.33 549 833.17 536 869.50 510C905.83 484 924 443 924 387C924 333.67 904.50 293.33 865.50 266C826.50 238.67 777.67 225 719 225C672.33 225 640.17 236 622.50 258C604.83 280 596 322.33 596 385ZM596 920C596 985.33 605.17 1027.83 623.50 1047.50C641.83 1067.17 674.33 1077 721 1077C773 1077 816 1064.83 850 1040.50C884 1016.17 901 978 901 926C901 876.67 883 839 847 813C811 787 765 774 709 774C665 774 635.17 783.67 619.50 803C603.83 822.33 596 861.33 596 920Z"  horiz-adv-x="1529" vert-adv-y="2048"  />

      
      <glyph glyph-name="uni43" unicode="&#x43;" d="M100 647C100 536.33 119.83 437 159.50 349C199.17 261 252.50 190.33 319.50 137C386.50 83.67 461.67 43 545 15C628.33-13 716.33-27 809-27C956.33-27 1080.67-1.67 1182 49C1300.67 109 1360 183.33 1360 272C1360 318.67 1350.33 357.33 1331 388C1311.67 418.67 1284.33 434 1249 434C1234.33 434 1219.83 431 1205.50 425C1191.17 419 1171.67 409 1147 395C1122.33 381 1100.33 369.33 1081 360C1005 324.67 929.33 307 854 307C776 307 704.33 336.33 639 395C573.67 453.67 541 539.67 541 653C541 763.67 575 846.67 643 902C711 957.33 785.33 985 866 985C937.33 985 1006.33 968 1073 934C1095 923.33 1116.17 911.17 1136.50 897.50C1156.83 883.83 1172.50 874.50 1183.50 869.50C1194.50 864.50 1207.67 862 1223 862C1257 862 1283.83 876.50 1303.50 905.50C1323.17 934.50 1333 968 1333 1006C1333 1064.67 1319 1112.67 1291 1150C1263 1187.33 1220.33 1220.33 1163 1249C1073 1294.33 955 1317 809 1317C613.67 1317 446.67 1255.83 308 1133.50C169.33 1011.17 100 849 100 647Z"  horiz-adv-x="1470" vert-adv-y="2048"  />

      
      <glyph glyph-name="uni44" unicode="&#x44;" d="M111 645C111 439 117.67 290.33 131 199C144.33 96.33 215.33 32.67 344 8C444-10.67 554-20 674-20C890.67-20 1063.50 38 1192.50 154C1321.50 270 1386 433.83 1386 645.50C1386 857.17 1321.67 1021 1193 1137C1064.33 1253 891.33 1311 674 1311C554 1311 444 1301.33 344 1282C217.33 1258 146.33 1194.67 131 1092C117.67 1000 111 851 111 645ZM522 655C522 761.67 526.33 851.33 535 924C539 964.67 550.17 992.83 568.50 1008.50C586.83 1024.17 622 1032 674 1032C758.67 1032 826.17 996.83 876.50 926.50C926.83 856.17 952 762.33 952 645C952 527.67 926.83 433.83 876.50 363.50C826.17 293.17 758.67 258 674 258C622 258 586.83 266 568.50 282C550.17 298 539 326.33 535 367C526.33 440.33 522 536.33 522 655Z"  horiz-adv-x="1515" vert-adv-y="2048"  />

      
      <glyph glyph-name="uni45" unicode="&#x45;" d="M164 645C164 440.33 170 295 182 209C192 139 214.67 89.33 250 60C285.33 30.67 333.67 12.67 395 6C515.67-6 634.67-12 752-12C846-12 938.67-8.67 1030-2C1170.67 4.67 1241 64 1241 176C1241 282.67 1193.33 336 1098 336C1073.33 336 1013.50 327.83 918.50 311.50C823.50 295.17 748 287 692 287C656.67 287 630.50 295 613.50 311C596.50 327 588 357.67 588 403C588 445.67 594.33 475.50 607 492.50C619.67 509.50 648 518 692 518C727.33 518 769 514.67 817 508C865 501.33 900 498 922 498C1017.33 498 1065 547.17 1065 645.50C1065 743.83 1017.33 793 922 793C900 793 865 789.50 817 782.50C769 775.50 727.33 772 692 772C648.67 772 620.50 780.67 607.50 798C594.50 815.33 588 845 588 887C588 931.67 596.50 962.33 613.50 979C630.50 995.67 656.67 1004 692 1004C745.33 1004 817 995.67 907 979C997 962.33 1053.67 954 1077 954C1173 954 1221 1007.33 1221 1114C1221 1223.33 1150.67 1282 1010 1290C907.33 1298.67 821.33 1303 752 1303C634 1302.33 515 1296 395 1284C333.67 1277.33 285.17 1259.17 249.50 1229.50C213.83 1199.83 191.33 1150.33 182 1081C170 995 164 849.67 164 645Z"  horiz-adv-x="1341" vert-adv-y="2048"  />

      
      <glyph glyph-name="uni46" unicode="&#x46;" d="M164 645C164 417 171.33 258.67 186 170C200 48.67 265.83-12 383.50-12C501.17-12 566.67 48.67 580 170C585.33 218 588 289.67 588 385C588 417.67 595.50 441.17 610.50 455.50C625.50 469.83 652.67 477 692 477C727.33 477 769 473.67 817 467C865 460.33 900 457 922 457C1017.33 457 1065 506.17 1065 604.50C1065 702.83 1017.33 752 922 752C900 752 865.33 748.50 818 741.50C770.67 734.50 728.67 731 692 731C648.67 731 620.50 740.83 607.50 760.50C594.50 780.17 588 815.33 588 866C588 919.33 596.50 955.67 613.50 975C630.50 994.33 656.67 1004 692 1004C740 1004 803.83 995.67 883.50 979C963.17 962.33 1014 954 1036 954C1132 954 1180 1007.33 1180 1114C1180 1164.67 1164.33 1205.33 1133 1236C1101.67 1266.67 1047 1284.67 969 1290C883 1298.67 810.67 1303 752 1303C634 1302.33 515 1296 395 1284C333.67 1277.33 285.17 1259.17 249.50 1229.50C213.83 1199.83 191.33 1150.33 182 1081C170 995 164 849.67 164 645Z"  horiz-adv-x="1234" vert-adv-y="2048"  />

      
      <glyph glyph-name="uni47" unicode="&#x47;" d="M121 647C121 539 139.33 442.33 176 357C212.67 271.67 260.50 203.83 319.50 153.50C378.50 103.17 441.83 65 509.50 39C577.17 13 644.33 0 711 0C817 0 921.33 37 1024 111C1034.67 67 1052.33 35.50 1077 16.50C1101.67-2.50 1140-12 1192-12C1245.33-12 1284-1.17 1308 20.50C1332 42.17 1350 78.33 1362 129C1372.67 173 1378 238.67 1378 326C1378 402 1372.67 467.33 1362 522C1349.33 572.67 1330.83 609 1306.50 631C1282.17 653 1243.33 664 1190 664C1136.67 664 1097.33 653 1072 631C1046.67 609 1029.33 572.67 1020 522C1012 473.33 1008 410.67 1008 334C954.67 316 900.67 307 846 307C770.67 307 704.33 336.33 647 395C589.67 453.67 561 539.67 561 653C561 758.33 595.50 838.33 664.50 893C733.50 947.67 807.67 975 887 975C944.33 975 1007 960 1075 930L1123 906L1161 887C1169.67 883 1179.83 879.17 1191.50 875.50C1203.17 871.83 1215 870 1227 870C1300.33 870.67 1337 918 1337 1012C1337.67 1115.33 1285.33 1191.67 1180 1241C1084 1285 974 1307 850 1307C646.67 1307 474.33 1246.50 333 1125.50C191.67 1004.50 121 845 121 647Z"  horiz-adv-x="1505" vert-adv-y="2048"  />

      
      <glyph glyph-name="uni48" unicode="&#x48;" d="M168 666C168 450 174.67 291.33 188 190C196.67 127.33 219.33 80 256 48C292.67 16 339.67 0 397 0C435.67 0 467.83 6.17 493.50 18.50C519.17 30.83 538.83 45.17 552.50 61.50C566.17 77.83 576.83 101.33 584.50 132C592.17 162.67 596.67 190 598 214C599.33 238 600 269.67 600 309L600 428C600 459.33 604.83 479.83 614.50 489.50C624.17 499.17 644.67 504 676 504L928 504C958 504 978.17 499.17 988.50 489.50C998.83 479.83 1004 460 1004 430L1004 307C1004 255 1006 213.33 1010 182C1014 150.67 1022.50 119.67 1035.50 89C1048.50 58.33 1069.50 35.83 1098.50 21.50C1127.50 7.17 1165.33 0 1212 0C1268 0 1314.17 16 1350.50 48C1386.83 80 1409 127.33 1417 190C1431 291.33 1438 450 1438 666C1437.33 864 1430.33 1008.67 1417 1100C1399 1226.67 1330 1290 1210 1290C1126.67 1290 1071.50 1266.50 1044.50 1219.50C1017.50 1172.50 1004 1106.67 1004 1022L1004 901C1004 869.67 999.17 849.17 989.50 839.50C979.83 829.83 959.33 825 928 825L676 825C644.67 825 624.17 829.50 614.50 838.50C604.83 847.50 600 867.67 600 899L600 1024C600 1114 585 1180.83 555 1224.50C525 1268.17 471.67 1290 395 1290C276.33 1290 207.33 1226.67 188 1100C174.67 1008.67 168 864 168 666Z"  horiz-adv-x="1605" vert-adv-y="2048"  />

      
      <glyph glyph-name="uni49" unicode="&#x49;" d="M111 666C111 435.33 117.67 274 131 182C149 60.67 215.33 0 330 0C441.33 0 506 60.67 524 182C538 274 545 435.33 545 666C544.33 878.67 537.33 1026 524 1108C510.67 1229.33 445.17 1290 327.50 1290C209.83 1290 144.33 1229.33 131 1108C117.67 1026 111 878.67 111 666Z"  horiz-adv-x="655" vert-adv-y="2048"  />

      
      <glyph glyph-name="uni4a" unicode="&#x4a;" d="M16 283C16 202.33 57 134.33 139 79C221 23.67 313.33-4 416-4C634.67-4 776.67 95 842 293C877.33 401 895 525.33 895 666C895 862.67 886.67 1010 870 1108C859.33 1172 838 1218.33 806 1247C774 1275.67 730 1290 674 1290C564.67 1290 499 1229.33 477 1108C466.33 1049.33 461 951.67 461 815C461 760.33 465.33 685.33 474 590C482.67 494.67 487 434.67 487 410C487 329.33 458.33 289 401 289C364.33 288.33 332.33 310.67 305 356C269.67 416 224 446 168 446C120 446 82.67 429 56 395C29.33 361 16 323.67 16 283Z"  horiz-adv-x="1005" vert-adv-y="2048"  />

      
      <glyph glyph-name="uni4b" unicode="&#x4b;" d="M164 657C164 433 173.67 276 193 186C205 62 280.67 0 420 0C538.67 0 598 77 598 231L598 420C598 486.67 620 520 664 520C700.67 520 737.33 490.67 774 432C786 412.67 814 372.33 858 311L950 182C999.33 108.67 1043 60 1081 36C1119 12 1175.67 0 1251 0C1390.33 0 1460 45.67 1460 137C1460 157.67 1454.50 179.67 1443.50 203C1432.50 226.33 1415.50 252.50 1392.50 281.50C1369.50 310.50 1347.33 336.33 1326 359L1237 453C1199 492.33 1169.67 523.67 1149 547L1127 568C1117 578.67 1110.33 586 1107 590L1091 609C1083 618.33 1077.67 625.67 1075 631C1072.33 636.33 1069.67 642.83 1067 650.50C1064.33 658.17 1063 665.33 1063 672C1063 698 1106 754 1192 840C1208.67 857.33 1233.67 882.33 1267 915C1300.33 947.67 1323.67 971.67 1337 987L1385 1042C1403.67 1064 1416.50 1083.50 1423.50 1100.50C1430.50 1117.50 1434 1134.33 1434 1151C1434 1201.67 1419.17 1237.17 1389.50 1257.50C1359.83 1277.83 1315 1288 1255 1288C1171.67 1288 1109.83 1278.17 1069.50 1258.50C1029.17 1238.83 990.67 1201 954 1145L893 1055L830 970L782 907C736.67 841.67 695.67 809 659 809C619.67 809 600 838.33 600 897L600 989C600 1107.67 586.83 1187.17 560.50 1227.50C534.17 1267.83 482.67 1288 406 1288C345.33 1288 296.17 1272 258.50 1240C220.83 1208 196 1149.67 184 1065C170.67 967.67 164 831.67 164 657Z"  horiz-adv-x="1542" vert-adv-y="2048"  />

      
      <glyph glyph-name="uni4c" unicode="&#x4c;" d="M166 727C166 469 172.67 287.33 186 182C194.67 120.67 215 76 247 48C279 20 324.33 4 383 0C477-8 593-12 731-12C811.67-12 891-8.67 969-2C1109.67 6 1180 67.33 1180 182C1180 227.33 1169.33 266.67 1148 300C1126.67 333.33 1089.33 350 1036 350C1018.67 350 973.33 338.50 900 315.50C826.67 292.50 757.33 281 692 281C655.33 281 628.83 290.17 612.50 308.50C596.17 326.83 588 355.67 588 395C588 423.67 590 476.67 594 554C598 631.33 600 689 600 727C600 910.33 593.33 1037.33 580 1108C566 1229.33 500.17 1290 382.50 1290C264.83 1290 199.33 1229.33 186 1108C172.67 1036.67 166 909.67 166 727Z"  horiz-adv-x="1277" vert-adv-y="2048"  />

      
      <glyph glyph-name="uni4d" unicode="&#x4d;" d="M82 164C82 117.33 96.33 78.33 125 47C153.67 15.67 212.33 0 301 0C375 0 426 10.17 454 30.50C482 50.83 500.67 89.67 510 147C511.33 174.33 513 234.50 515 327.50C517 420.50 520 491 524 539C535.33 689 554.67 764 582 764C606 764 629.67 736 653 680L778 367C808 294.33 837 246 865 222C893 198 937.67 186 999 186C1062.33 186 1108 198 1136 222C1164 246 1193 294.33 1223 367L1348 680C1370.67 736 1394.33 764 1419 764C1447 764 1466.33 689 1477 539C1481 489.67 1484 418.83 1486 326.50C1488 234.17 1489.67 174.33 1491 147C1500.33 89.67 1519 50.83 1547 30.50C1575 10.17 1626 0 1700 0C1746 0 1784.83 5.17 1816.50 15.50C1848.17 25.83 1870.83 39.83 1884.50 57.50C1898.17 75.17 1907.33 92.17 1912 108.50C1916.67 124.83 1919 143.33 1919 164C1919 250 1903.50 382 1872.50 560C1841.50 738 1807 881.67 1769 991C1729.67 1101.67 1699 1172.67 1677 1204C1633.67 1261.33 1565.67 1290 1473 1290C1411 1290 1365.67 1284.83 1337 1274.50C1308.33 1264.17 1279.67 1240.67 1251 1204C1196.33 1116.67 1156 1042.33 1130 981C1114 941 1089 875.33 1055 784C1052.33 778.67 1049.50 771.67 1046.50 763C1043.50 754.33 1041 747.83 1039 743.50C1037 739.17 1035 734 1033 728C1031 722 1029 717.33 1027 714C1025 710.67 1022.67 707.50 1020 704.50C1017.33 701.50 1014.17 699.33 1010.50 698C1006.83 696.67 1003 696 999 696C995 696 991 697.33 987 700C977.67 705.33 964 733.33 946 784L870 981C859.33 1008.33 847.50 1035.33 834.50 1062C821.50 1088.67 810.67 1108.67 802 1122L770 1174L750 1204C721.33 1241.33 692.50 1265 663.50 1275C634.50 1285 589.33 1290 528 1290C436 1290 368 1261.33 324 1204C301.33 1172.67 270.33 1101.67 231 991C193 884.33 158.67 741.33 128 562C97.33 382.67 82 250 82 164Z"  horiz-adv-x="2000" vert-adv-y="2048"  />

      
      <glyph glyph-name="uni4e" unicode="&#x4e;" d="M168 666C168 450 174.67 291.33 188 190C196.67 127.33 219.33 80 256 48C292.67 16 339.67 0 397 0C434.33 0 465.83 5.83 491.50 17.50C517.17 29.17 536.50 42.50 549.50 57.50C562.50 72.50 572.50 93.33 579.50 120C586.50 146.67 590.33 167.83 591 183.50C591.67 199.17 592 220.67 592 248C592 300 587.17 360.17 577.50 428.50C567.83 496.83 563 535 563 543C563 583.67 574 604 596 604C602.67 604 609.50 602 616.50 598C623.50 594 631.50 587.17 640.50 577.50C649.50 567.83 657.33 558.67 664 550L694 511L727 469C882.33 281 967.67 178.67 983 162C1078.33 54 1163 0 1237 0C1282.33 0 1321.67 16.33 1355 49C1388.33 81.67 1409 128.67 1417 190C1431 291.33 1438 450 1438 666C1437.33 864 1430.33 1008.67 1417 1100C1399 1226.67 1330 1290 1210 1290C1166.67 1290 1130.67 1283.17 1102 1269.50C1073.33 1255.83 1053.17 1236.50 1041.50 1211.50C1029.83 1186.50 1022 1163 1018 1141C1014 1119 1012 1092.33 1012 1061C1012 1014.33 1016.67 957.17 1026 889.50C1035.33 821.83 1040 783.33 1040 774C1040.67 734.67 1030 715 1008 715C1002 715 995.67 717 989 721C978.33 727.67 936.67 774 864 860L612 1149C567.33 1198.33 528.17 1234.17 494.50 1256.50C460.83 1278.83 420.83 1290 374.50 1290C328.17 1290 287.50 1273.67 252.50 1241C217.50 1208.33 196 1161.33 188 1100C174.67 1008.67 168 864 168 666Z"  horiz-adv-x="1605" vert-adv-y="2048"  />

      
      <glyph glyph-name="uni4f" unicode="&#x4f;" d="M104 643C104 433 170.67 269.17 304 151.50C437.33 33.83 608.33-25 817-25C1025.67-25 1196.67 34.17 1330 152.50C1463.33 270.83 1530 435 1530 645C1530 853.67 1462.67 1017.50 1328 1136.50C1193.33 1255.50 1023 1315 817 1315C608.33 1315 437.33 1255.50 304 1136.50C170.67 1017.50 104 853 104 643ZM539 645C539 755.67 563.17 844.50 611.50 911.50C659.83 978.50 728.33 1012 817 1012C905.67 1012 974.33 978.50 1023 911.50C1071.67 844.50 1096 755.67 1096 645C1096 534.33 1071.67 445.67 1023 379C974.33 312.33 905.67 279 817 279C728.33 279 659.83 312.33 611.50 379C563.17 445.67 539 534.33 539 645Z"  horiz-adv-x="1634" vert-adv-y="2048"  />

      
      <glyph glyph-name="uni50" unicode="&#x50;" d="M164 657C164 441 170.67 282.67 184 182C192.67 119.33 215.33 72 252 40C288.67 8 335.67-8 393-8C531-8.67 600 69.67 600 227C600 255.67 598.67 287.83 596 323.50C593.33 359.17 592 378.33 592 381C592 404.33 597.83 421 609.50 431C621.17 441 642 446 672 446C678.67 446 695.33 445 722 443C748.67 441 772.33 440 793 440C965 440 1091.83 478.67 1173.50 556C1255.17 633.33 1296 732 1296 852C1296 1003.33 1240.67 1114.17 1130 1184.50C1019.33 1254.83 876 1290 700 1290C570.67 1290.67 467.67 1281.33 391 1262C269.67 1234.67 200.67 1163.67 184 1049C170.67 955.67 164 825 164 657ZM578 860C578 929.33 584 976 596 1000C608 1024 636 1036 680 1036C809.33 1036 874.17 977.33 874.50 860C874.83 742.67 810 684 680 684C636 684 608 695.67 596 719C584 742.33 578 789.33 578 860Z"  horiz-adv-x="1398" vert-adv-y="2048"  />

      
      <glyph glyph-name="uni51" unicode="&#x51;" d="M104 643C104 433 170.67 269.17 304 151.50C437.33 33.83 608.33-25 817-25C857.67-24.33 903.33-20.67 954-14C993.33-82.67 1037.67-145 1087-201C1168.33-291 1254.67-336 1346-336C1398.67-336 1442.83-318.67 1478.50-284C1514.17-249.33 1532-209.33 1532-164C1532-64 1446.67 27 1276 109C1445.33 231.67 1530 410.33 1530 645C1530 853.67 1462.67 1017.50 1328 1136.50C1193.33 1255.50 1023 1315 817 1315C608.33 1315 437.33 1255.50 304 1136.50C170.67 1017.50 104 853 104 643ZM539 645C539 755.67 563.17 844.50 611.50 911.50C659.83 978.50 728.33 1012 817 1012C905.67 1012 974.33 978.50 1023 911.50C1071.67 844.50 1096 755.67 1096 645C1096 534.33 1071.67 445.67 1023 379C974.33 312.33 905.67 279 817 279C728.33 279 659.83 312.33 611.50 379C563.17 445.67 539 534.33 539 645Z"  horiz-adv-x="1634" vert-adv-y="2048"  />

      
      <glyph glyph-name="uni52" unicode="&#x52;" d="M164 657C164 441 170.67 282.67 184 182C192.67 119.33 215.33 72 252 40C288.67 8 335.67-8 393-8C531-8.67 600 69.67 600 227C600 255.67 598.67 285.17 596 315.50C593.33 345.83 592 364.33 592 371C592 411.67 603.67 432 627 432C654.33 432 689 400 731 336C768.33 280 818.33 212.33 881 133C921.67 82.33 959 47.50 993 28.50C1027 9.50 1080.33 0 1153 0C1225.67 0 1279 7.17 1313 21.50C1347 35.83 1364 67.67 1364 117C1364 144.33 1346.67 179.17 1312 221.50C1277.33 263.83 1228.83 314 1166.50 372C1104.17 430 1062.67 470.67 1042 494C1118.67 519.33 1183.67 562.50 1237 623.50C1290.33 684.50 1317 758 1317 844C1317 947.33 1288 1033.17 1230 1101.50C1172 1169.83 1098.17 1218.33 1008.50 1247C918.83 1275.67 816 1290 700 1290C570.67 1290.67 467.67 1281.33 391 1262C269.67 1234.67 200.67 1163.67 184 1049C170.67 955.67 164 825 164 657ZM578 840C578 916.67 584 968.50 596 995.50C608 1022.50 636 1036 680 1036C752 1036 805.83 1017.33 841.50 980C877.17 942.67 895 900 895 852C895 797.33 878.33 752.33 845 717C811.67 681.67 756.67 664 680 664C636 664 608 675.67 596 699C584 722.33 578 769.33 578 840Z"  horiz-adv-x="1476" vert-adv-y="2048"  />

      
      <glyph glyph-name="uni53" unicode="&#x53;" d="M139 248C139 151.33 180 84.33 262 47C355.33 5 518-16 750-16C816.67-16 878.33-10 935 2C991.67 14 1045.17 34.33 1095.50 63C1145.83 91.67 1185.33 133 1214 187C1242.67 241 1257 305.67 1257 381C1257.67 537.67 1165 654.33 979 731L762 819C689.33 846.33 641.50 867.83 618.50 883.50C595.50 899.17 584 918.67 584 942C584 991.33 626.33 1016 711 1016C767 1016 821.50 1005.33 874.50 984C927.50 962.67 974.50 941.50 1015.50 920.50C1056.50 899.50 1090 889 1116 889C1190 889 1227 945.67 1227 1059C1226.33 1130.33 1192.67 1185.67 1126 1225C1034.67 1279.67 901 1307 725 1307C348.33 1306.33 160 1174.33 160 911C160 832.33 184.17 762.50 232.50 701.50C280.83 640.50 343.33 593 420 559C525.33 513.67 593 486.33 623 477C710.33 447 767.33 424.50 794 409.50C820.67 394.50 834 375.33 834 352C834 300 795 274 717 274C657 274 599.33 286.33 544 311C488.67 335.67 438 360 392 384C346 408 305.33 420 270 420C182.67 420 139 362.67 139 248Z"  horiz-adv-x="1396" vert-adv-y="2048"  />

      
      <glyph glyph-name="uni54" unicode="&#x54;" d="M41 1075C41 1019 52.67 966.83 76 918.50C99.33 870.17 140.33 846 199 846C231.67 846 275.50 869.50 330.50 916.50C385.50 963.50 424 987 446 987C479.33 987 496 972 496 942C496 909.33 493.83 859.17 489.50 791.50C485.17 723.83 483 675 483 645C483.67 426.33 490 272 502 182C516.67 60.67 583.33 0 702 0C815.33 0 881 60.67 899 182C911.67 272 918 426.33 918 645C918 673.67 915.83 720.50 911.50 785.50C907.17 850.50 905 898.67 905 930C905.67 968 924.33 987 961 987C982.33 987 1020 963.50 1074 916.50C1128 869.50 1171.33 846 1204 846C1235.33 846 1262.33 853.83 1285 869.50C1307.67 885.17 1324.50 906 1335.50 932C1346.50 958 1354 982.50 1358 1005.50C1362 1028.50 1364 1051.67 1364 1075C1364 1136.33 1348 1188.83 1316 1232.50C1284 1276.17 1229.67 1298 1153 1298C1119 1298 1060.33 1297 977 1295C893.67 1293 802 1292 702 1292C604 1292 512.67 1293 428 1295C343.33 1297 286 1298 256 1298C188 1298 135.17 1275.17 97.50 1229.50C59.83 1183.83 41 1132.33 41 1075Z"  horiz-adv-x="1404" vert-adv-y="2048"  />

      
      <glyph glyph-name="uni55" unicode="&#x55;" d="M162 666C162 540.67 185 418.33 231 299C271 195 339.50 115.83 436.50 61.50C533.50 7.17 648.83-20 782.50-20C916.17-20 1031.50 7.17 1128.50 61.50C1225.50 115.83 1293.67 195 1333 299C1379.67 418.33 1403 540.67 1403 666C1402.33 872.67 1395.33 1013 1382 1087C1370 1151.67 1344.83 1201.67 1306.50 1237C1268.17 1272.33 1221 1290 1165 1290C1035.67 1290.67 971 1224 971 1090C971 1058 973.67 994.33 979 899C984.33 803.67 987 729.33 987 676C987 617.33 985 567.50 981 526.50C977 485.50 968.17 444.50 954.50 403.50C940.83 362.50 919.67 331.50 891 310.50C862.33 289.50 826.17 279 782.50 279C738.83 279 702.33 289.50 673 310.50C643.67 331.50 622.50 362.50 609.50 403.50C596.50 444.50 587.50 485.50 582.50 526.50C577.50 567.50 575 617.33 575 676C575 729.33 577.83 803.50 583.50 898.50C589.17 993.50 592 1057.33 592 1090C592 1223.33 527.67 1290 399 1290C343 1290 295.83 1272.17 257.50 1236.50C219.17 1200.83 194 1151 182 1087C168.67 1013.67 162 873.33 162 666Z"  horiz-adv-x="1572" vert-adv-y="2048"  />

      
      <glyph glyph-name="uni56" unicode="&#x56;" d="M61 1114C61 1030.67 92.83 896.50 156.50 711.50C220.17 526.50 286.67 376.67 356 262C424.67 148.67 483.50 74.67 532.50 40C581.50 5.33 657.33-12 760-12C833.33-12 892.67-2.83 938 15.50C983.33 33.83 1020.50 59.67 1049.50 93C1078.50 126.33 1117 182.67 1165 262C1235 375.33 1301.67 524.83 1365 710.50C1428.33 896.17 1460 1030.67 1460 1114C1460 1164.67 1445.33 1206.67 1416 1240C1386.67 1273.33 1327.67 1290 1239 1290C1195.67 1290 1159.17 1284.50 1129.50 1273.50C1099.83 1262.50 1077.17 1245.17 1061.50 1221.50C1045.83 1197.83 1035.33 1177.83 1030 1161.50C1024.67 1145.17 1018.67 1122.67 1012 1094C1009.33 1081.33 1001.17 1041.17 987.50 973.50C973.83 905.83 960.83 846 948.50 794C936.17 742 920.33 683.33 901 618C857.67 468 811.33 393 762 393C712 393 665 468 621 618C601.67 684 585.83 742.83 573.50 794.50C561.17 846.17 548.17 906 534.50 974C520.83 1042 512.67 1082 510 1094C504.67 1118 500.33 1135.83 497 1147.50C493.67 1159.17 486.50 1176 475.50 1198C464.50 1220 451.83 1236.50 437.50 1247.50C423.17 1258.50 402.67 1268.33 376 1277C349.33 1285.67 318.33 1290 283 1290C135 1290 61 1231.33 61 1114Z"  horiz-adv-x="1521" vert-adv-y="2048"  />

      
      <glyph glyph-name="uni57" unicode="&#x57;" d="M61 1114C61 1032 86.33 898.50 137 713.50C187.67 528.50 240.33 378 295 262C353.67 147.33 403.83 73 445.50 39C487.17 5 551-12 637-12C724.33-12 787.83 12.67 827.50 62C867.17 111.33 916.33 212.33 975 365C975 366.33 975.67 369.33 977 374C978.33 378.67 979.67 382 981 384C982.33 386 983.67 389 985 393C986.33 397 987.67 400.17 989 402.50C990.33 404.83 992 407.33 994 410C996 412.67 998.33 414.67 1001 416L1010 420C1012.67 421.33 1016 422 1020 422C1025.33 422 1030.50 420.67 1035.50 418C1040.50 415.33 1044.33 411.67 1047 407L1054 394C1056 390.67 1058 385.67 1060 379C1062 372.33 1063.67 367.67 1065 365C1122.33 211.67 1170.83 110.50 1210.50 61.50C1250.17 12.50 1314.33-12 1403-12C1489-12 1552.83 5 1594.50 39C1636.17 73 1686.33 147.33 1745 262C1799.67 378 1852.17 528.50 1902.50 713.50C1952.83 898.50 1978 1032 1978 1114C1978 1231.33 1904.33 1290 1757 1290C1713.67 1290 1677 1285 1647 1275C1617 1265 1594.33 1249.67 1579 1229C1563.67 1208.33 1553 1189.83 1547 1173.50C1541 1157.17 1535.33 1135.33 1530 1108C1506.67 864 1490.33 705.67 1481 633C1470.33 555 1456.67 495.33 1440 454C1424 413.33 1405 393 1383 393L1380 393C1334 394.33 1297.33 469.33 1270 618C1254.67 700 1243.17 793 1235.50 897C1227.83 1001 1220 1073.33 1212 1114C1205.33 1170 1188.67 1213.33 1162 1244C1135.33 1274.67 1088 1290 1020 1290C972 1290 934 1281.17 906 1263.50C878 1245.83 859.50 1225.67 850.50 1203C841.50 1180.33 834.33 1150.67 829 1114C821 1073.33 812.67 1001 804 897C795.33 793 783.33 700 768 618C754.67 540.67 739.67 484.17 723 448.50C706.33 412.83 685 394.33 659 393L657 393C635 393.67 616 414 600 454C583.33 495.33 569.67 554.33 559 631C541.67 760.33 525.33 918.67 510 1106C504.67 1133.33 498.83 1155.17 492.50 1171.50C486.17 1187.83 475.50 1206.67 460.50 1228C445.50 1249.33 423.17 1265 393.50 1275C363.83 1285 327 1290 283 1290C135 1290 61 1231.33 61 1114Z"  horiz-adv-x="2039" vert-adv-y="2048"  />

      
      <glyph glyph-name="uni58" unicode="&#x58;" d="M57 123C57 82.33 76.17 51.67 114.50 31C152.83 10.33 204 0 268 0C329.33 0 379.17 9.83 417.50 29.50C455.83 49.17 488 84.33 514 135C523.33 154.33 542.67 187.83 572 235.50C601.33 283.17 623.67 322 639 352C673 420.67 705 455 735 455C763.67 454.33 795 420 829 352C840.33 330 861.33 294.83 892 246.50C922.67 198.17 944 161 956 135C980.67 84.33 1012.83 49.17 1052.50 29.50C1092.17 9.83 1143.33 0 1206 0C1344 0 1413 41 1413 123C1413 136.33 1411 149.83 1407 163.50C1403 177.17 1396.50 191.67 1387.50 207C1378.50 222.33 1371 234 1365 242L1337 279C1325 295 1318.33 303.67 1317 305C1307.67 319 1280.50 352.17 1235.50 404.50C1190.50 456.83 1158.33 496.67 1139 524C1095 585.33 1073 628.33 1073 653C1073 660.33 1073.67 667.33 1075 674C1076.33 680.67 1078.17 686.50 1080.50 691.50C1082.83 696.50 1086.67 703.33 1092 712L1104 732C1106.67 736.67 1112.17 745.17 1120.50 757.50C1128.83 769.83 1135 778.67 1139 784C1153.67 807.33 1178.50 842.83 1213.50 890.50C1248.50 938.17 1271.33 971 1282 989L1306 1027C1317.33 1045.67 1326.33 1061.50 1333 1074.50C1339.67 1087.50 1346.50 1102.67 1353.50 1120C1360.50 1137.33 1364 1153.67 1364 1169C1364 1249.67 1294.33 1290 1155 1290C1093.67 1290 1045 1280.50 1009 1261.50C973 1242.50 943.33 1207 920 1155C856.67 1014.33 824.33 943.33 823 942C789 871.33 759.67 836 735 836C710.33 836 681 871.33 647 942C645.67 943.33 613.67 1014.33 551 1155C527.67 1207 497.83 1242.50 461.50 1261.50C425.17 1280.50 376.33 1290 315 1290C175.67 1290 106 1249.67 106 1169C106 1154.33 109.50 1138.17 116.50 1120.50C123.50 1102.83 130.50 1087.50 137.50 1074.50C144.50 1061.50 153.67 1045.67 165 1027L188 989C199.33 971.67 222.33 939 257 891C291.67 843 316.67 807.33 332 784C336 778.67 342.17 769.83 350.50 757.50C358.83 745.17 364.33 736.67 367 732L379 712C384.33 702.67 388 695.67 390 691C392 686.33 393.67 680.50 395 673.50C396.33 666.50 397 659.67 397 653C397.67 628.33 376 585.33 332 524C312.67 496.67 280.50 456.67 235.50 404C190.50 351.33 163.33 318.33 154 305L133 279C119 261 109.67 248.33 105 241L84 206C74.67 190 67.83 175.17 63.50 161.50C59.17 147.83 57 135 57 123Z"  horiz-adv-x="1470" vert-adv-y="2048"  />

      
      <glyph glyph-name="uni59" unicode="&#x59;" d="M63 1169C63 1118.33 85.67 1058.33 131 989C233.67 828.33 339.67 679 449 541C481.67 498.33 498 458.67 498 422L498 250C498 216 500.33 186 505 160C509.67 134 518.50 108 531.50 82C544.50 56 565.33 35.83 594 21.50C622.67 7.17 658.83 0 702.50 0C746.17 0 782.33 7.17 811 21.50C839.67 35.83 860.50 56 873.50 82C886.50 108 895.33 134 900 160C904.67 186 907 216 907 250L907 422C907 459.33 923.33 499 956 541C1065.33 678.33 1171.33 827.67 1274 989C1318.67 1058.33 1341 1118.33 1341 1169C1341.67 1249.67 1277 1290 1147 1290C1083 1290 1032.17 1280.83 994.50 1262.50C956.83 1244.17 927.67 1208.33 907 1155C877.67 1078.33 839.67 991 793 893C755.67 816.33 725.33 778 702 778C678.67 778 648.67 816.33 612 893C566 991 528 1078.33 498 1155C477.33 1208.33 448.17 1244.17 410.50 1262.50C372.83 1280.83 322 1290 258 1290C128 1290 63 1249.67 63 1169Z"  horiz-adv-x="1404" vert-adv-y="2048"  />

      
      <glyph glyph-name="uni5a" unicode="&#x5a;" d="M94 1083C94 946.33 148.67 878.33 258 879C303.33 879 376.83 902.50 478.50 949.50C580.17 996.50 650 1020 688 1020C718 1020 733 1005.67 733 977C733 970.33 729.17 961.50 721.50 950.50C713.83 939.50 705.67 929.33 697 920L662 883C646.67 867.67 635.67 856 629 848C611 828.67 557.17 775 467.50 687C377.83 599 298.33 516.67 229 440C179 384 145 336.67 127 298C109 259.33 100 216 100 168C100 124 114.67 86.67 144 56C173.33 25.33 217.33 7.33 276 2C382-6 497.67-10 623-10C764.33-10 901.33-6.67 1034 0C1117.33 5.33 1182.17 26.83 1228.50 64.50C1274.83 102.17 1298 149 1298 205C1298.67 341.67 1244.33 410 1135 410C1088.33 410 1011.67 386.67 905 340C798.33 293.33 728.67 270 696 270C656.67 270 637 284.33 637 313C637 332.33 671.67 374.67 741 440L914 611L1051 757L1133 848C1183 902.67 1217.33 949.33 1236 988C1254.67 1026.67 1264 1070.67 1264 1120C1264 1164 1248.83 1201.33 1218.50 1232C1188.17 1262.67 1143.67 1280.67 1085 1286C976.33 1294 864.67 1298 750 1298C588.67 1298 458 1295.33 358 1290C274.67 1284.67 209.83 1262.83 163.50 1224.50C117.17 1186.17 94 1139 94 1083Z"  horiz-adv-x="1392" vert-adv-y="2048"  />

      
      <glyph glyph-name="uni61" unicode="&#x61;" d="M70 307C70 207 101.33 129.50 164 74.50C226.67 19.50 308-8 408-8C537.33-8 649.67 35 745 121L750 121C776.67 40.33 843.33 0 950 0C1052.67 0 1114.33 53.33 1135 160C1147 216.67 1153 326.33 1153 489C1153 542.33 1151 587.17 1147 623.50C1143 659.83 1134.17 703.17 1120.50 753.50C1106.83 803.83 1082.17 848.50 1046.50 887.50C1010.83 926.50 965.67 958.33 911 983C823.67 1021 721.33 1040 604 1040C470 1040 358 1019 268 977C190.67 940.33 152 884.33 152 809C152 772.33 161.17 743.67 179.50 723C197.83 702.33 223.33 692 256 692C272.67 692 315 704.33 383 729C451 753.67 515.83 766 577.50 766C639.17 766 682.50 754.50 707.50 731.50C732.50 708.50 745 673.67 745 627L639 627C259.67 626.33 70 519.67 70 307ZM446 334C446 365.33 459 390.83 485 410.50C511 430.17 549.33 440 600 440L745 440L745 397C745 348.33 727.67 308.17 693 276.50C658.33 244.83 618.33 229 573 229C535 229 504.33 238.33 481 257C457.67 275.67 446 301.33 446 334Z"  horiz-adv-x="1255" vert-adv-y="2048"  />

      
      <glyph glyph-name="uni62" unicode="&#x62;" d="M123 727C123 456.33 132.67 268 152 162C161.33 104.67 180.33 63.33 209 38C237.67 12.67 279.33 0 334 0C441.33 0 502.67 41 518 123C605.33 33 709.67-12 831-12C963.67-12 1073.67 35 1161 129C1248.33 223 1292 350.67 1292 512C1292 670.67 1247.33 797.67 1158 893C1068.67 988.33 959.67 1036 831 1036C707 1036 603.33 995.67 520 915L516 915C524 973.67 528 1059 528 1171C528 1265.67 515.17 1333.17 489.50 1373.50C463.83 1413.83 412.67 1434 336 1434C280 1434 237.67 1421.33 209 1396C180.33 1370.67 161.33 1329.33 152 1272C132.67 1158.67 123 977 123 727ZM520 438L520 592C520 641.33 537.33 682.67 572 716C606.67 749.33 650 766 702 766C764 766 812.67 743.50 848 698.50C883.33 653.50 901 591.33 901 512C901 432.67 883.17 370.50 847.50 325.50C811.83 280.50 763.33 258 702 258C649.33 258 605.83 274 571.50 306C537.17 338 520 382 520 438Z"  horiz-adv-x="1374" vert-adv-y="2048"  />

      
      <glyph glyph-name="uni63" unicode="&#x63;" d="M78 512C78 338.67 133 207.33 243 118C353 28.67 497.33-16 676-16C782.67-16 878.33 3 963 41C1054.33 81.67 1100 138.33 1100 211C1100 251.67 1092.17 285 1076.50 311C1060.83 337 1039.33 350 1012 350C992.67 350 946.67 333 874 299C825.33 275.67 770.33 264 709 264C644.33 264 587.50 285.17 538.50 327.50C489.50 369.83 465 432.67 465 516C465 591.33 490.67 650.50 542 693.50C593.33 736.50 649.67 758 711 758C769 758 822 747.67 870 727C886.67 720.33 903.50 712.17 920.50 702.50C937.50 692.83 950.50 686.33 959.50 683C968.50 679.67 979 678 991 678C1018.33 678 1039.83 691 1055.50 717C1071.17 743 1079 776.33 1079 817C1079 891 1036.67 947 952 985C872 1021.67 782 1040 682 1040C503.33 1040 358 992 246 896C134 800 78 672 78 512Z"  horiz-adv-x="1157" vert-adv-y="2048"  />

      
      <glyph glyph-name="uni64" unicode="&#x64;" d="M82 512C82 350.67 125.67 223 213 129C300.33 35 410.33-12 543-12C664.33-12 768.67 33 856 123C870.67 41 932 0 1040 0C1094.67 0 1136.50 12.67 1165.50 38C1194.50 63.33 1213.67 104.67 1223 162C1241.67 268 1251 456.33 1251 727C1251.67 977 1242.33 1158.67 1223 1272C1213 1329.33 1193.67 1370.67 1165 1396C1136.33 1421.33 1094 1434 1038 1434C962 1434 911 1413.67 885 1373C859 1332.33 846 1265 846 1171C846 1059 850 973.67 858 915L854 915C770.67 995.67 667 1036 543 1036C414.33 1036 305.33 988.33 216 893C126.67 797.67 82 670.67 82 512ZM473 512C473 591.33 490.83 653.50 526.50 698.50C562.17 743.50 610.67 766 672 766C724 766 767.33 749.33 802 716C836.67 682.67 854 641.33 854 592L854 438C854 382 837 338 803 306C769 274 725.33 258 672 258C610.67 258 562.17 280.50 526.50 325.50C490.83 370.50 473 432.67 473 512Z"  horiz-adv-x="1374" vert-adv-y="2048"  />

      
      <glyph glyph-name="uni65" unicode="&#x65;" d="M82 516C82 349.33 135.17 219 241.50 125C347.83 31 496.67-16 688-16C813.33-16 929.33 12 1036 68C1107.33 104.67 1143 158.33 1143 229C1143 305.67 1112.33 344 1051 344C1034.33 344 1006.17 335.17 966.50 317.50C926.83 299.83 901 289 889 285C829 264.33 772.33 254 719 254C651.67 254 595.83 271.33 551.50 306C507.17 340.67 485 381.33 485 428L987 428C1100.33 428 1157 489.33 1157 612C1157 658.67 1147.17 706.17 1127.50 754.50C1107.83 802.83 1078.50 848.83 1039.50 892.50C1000.50 936.17 947.50 971.67 880.50 999C813.50 1026.33 738.33 1040 655 1040C498.33 1040 363.67 993.67 251 901C138.33 808.33 82 680 82 516ZM485 627C489 676.33 505.83 718.33 535.50 753C565.17 787.67 607.33 805 662 805C709.33 805 744.33 792.33 767 767C789.67 741.67 801 714.67 801 686C800.33 646.67 781.67 627 745 627Z"  horiz-adv-x="1230" vert-adv-y="2048"  />

      
      <glyph glyph-name="uni66" unicode="&#x66;" d="M20 907C20 821 70 778 170 778L182 778L182 582C182 422 189.67 280.67 205 158C223.67 52.67 287 0 395 0C440.33 0 477.33 12.33 506 37C534.67 61.67 553 95 561 137C576.33 215 584 363.33 584 582L584 778L659 778C759 778 809 820.33 809 905C809 937.67 797.33 965.67 774 989C750.67 1012.33 712.33 1024 659 1024L584 1024L584 1044C583.33 1128.67 621.33 1171 698 1171C731.33 1171 765.67 1164.17 801 1150.50C836.33 1136.83 861.67 1130 877 1130C899.67 1130 919.67 1140.33 937 1161C954.33 1181.67 963 1210.33 963 1247C963 1288.33 951.33 1323.67 928 1353C904.67 1382.33 874.17 1403.50 836.50 1416.50C798.83 1429.50 763.33 1438.33 730 1443C696.67 1447.67 663 1450 629 1450C504.33 1450 398.67 1416.17 312 1348.50C225.33 1280.83 182 1179.33 182 1044L182 1024L170 1024C119.33 1024 81.67 1012.67 57 990C32.33 967.33 20 939.67 20 907Z"  horiz-adv-x="831" vert-adv-y="2048"  />

      
      <glyph glyph-name="uni67" unicode="&#x67;" d="M82 512C82 353.33 126.67 226.33 216 131C305.33 35.67 416.33-12 549-12C673-12 777.33 28.33 862 109L866 109L866 37C866.67-94.33 788.33-160 631-160C571-160 511-147.67 451-123C437-117.67 420.50-110.17 401.50-100.50C382.50-90.83 367-84.33 355-81C343-77.67 331-76 319-76C292.33-76 272.17-89 258.50-115C244.83-141 238-173 238-211C237.33-295.67 273.33-352.33 346-381C439.33-419 547.33-438 670-438C814.67-438 934.17-412 1028.50-360C1122.83-308 1186.33-219.33 1219-94C1235-32.67 1243 97.67 1243 297C1243 572.33 1236.33 760.67 1223 862C1209 970 1148.17 1024 1040.50 1024C932.83 1024 871.33 983 856 901C766 991 663.67 1036 549 1036C416.33 1036 305.33 988.67 216 894C126.67 799.33 82 672 82 512ZM473 512C473 591.33 491.50 653.50 528.50 698.50C565.50 743.50 614.67 766 676 766C726.67 766 767.67 749.67 799 717C830.33 684.33 846 642.67 846 592L846 438C846 380.67 830.67 336.33 800 305C769.33 273.67 728 258 676 258C614.67 258 565.50 280.50 528.50 325.50C491.50 370.50 473 432.67 473 512Z"  horiz-adv-x="1366" vert-adv-y="2048"  />

      
      <glyph glyph-name="uni68" unicode="&#x68;" d="M123 727C123 463.67 132 278.67 150 172C168.67 57.33 231.33 0 338 0C399.33 0 446 15.33 478 46C510 76.67 526 135 526 221L526 489C526 555 540.67 606.67 570 644C599.33 681.33 642.67 700 700 700C749.33 700 787.67 680.83 815 642.50C842.33 604.17 856 553 856 489L856 233C856 147 873.83 86.67 909.50 52C945.17 17.33 993.67 0 1055 0C1159.67 0 1221.67 56.67 1241 170C1251.67 235.33 1257 356 1257 532C1257 569.33 1254.33 607.83 1249 647.50C1243.67 687.17 1232.17 730.17 1214.50 776.50C1196.83 822.83 1174.33 863.67 1147 899C1119.67 934.33 1082 964 1034 988C986 1012 931.33 1024 870 1024C726.67 1024 609.33 966 518 850L514 850C524.67 1000.67 530 1109.33 530 1176C530 1266 516.50 1331.50 489.50 1372.50C462.50 1413.50 410.67 1434 334 1434C226.67 1434 165.33 1376.67 150 1262C132 1129.33 123 951 123 727Z"  horiz-adv-x="1359" vert-adv-y="2048"  />

      
      <glyph glyph-name="uni69" unicode="&#x69;" d="M117 522C117 355.33 124.33 235.33 139 162C153 54 215.33 0 326 0C434 0 494.67 54 508 162C522.67 235.33 530 355.33 530 522C530.67 679.33 523.33 792.67 508 862C501.33 918 483 959 453 985C423 1011 380 1024 324 1024C214 1024 152.33 970 139 862C124.33 792.67 117 679.33 117 522ZM131 1319C131 1264.33 149.50 1221.67 186.50 1191C223.50 1160.33 269.33 1145 324 1145C376.67 1145 421.17 1160.33 457.50 1191C493.83 1221.67 512 1264.33 512 1319C512 1373.67 494 1416.67 458 1448C422 1479.33 377.33 1495 324 1495C269.33 1495 223.50 1479.33 186.50 1448C149.50 1416.67 131 1373.67 131 1319Z"  horiz-adv-x="647" vert-adv-y="2048"  />

      
      <glyph glyph-name="uni6a" unicode="&#x6a;" d="M-78-244C-78-312-48.50-362.67 10.50-396C69.50-429.33 132.33-446 199-446C267-446 324.50-434.17 371.50-410.50C418.50-386.83 457-353.17 487-309.50C517-265.83 540.33-206 557-130C573.67-54 585 28.17 591 116.50C597 204.83 600 314 600 444C600 638 593.33 775.33 580 856C568.67 913.33 549 955.67 521 983C493 1010.33 452.33 1024 399 1024C297 1024 237 968 219 856C205.67 774 199 636.67 199 444L199-20C199-104.67 174.33-147 125-147C108.33-147 87.33-143.67 62-137C36.67-130.33 18.67-127 8-127C-15.33-127-35.50-137.33-52.50-158C-69.50-178.67-78-207.33-78-244ZM207 1319C207 1264.33 225.33 1221.67 262 1191C298.67 1160.33 344.33 1145 399 1145C452.33 1145 497.17 1160.33 533.50 1191C569.83 1221.67 588 1264.33 588 1319C588 1373.67 569.83 1416.67 533.50 1448C497.17 1479.33 452.33 1495 399 1495C344.33 1495 298.67 1479.33 262 1448C225.33 1416.67 207 1373.67 207 1319Z"  horiz-adv-x="731" vert-adv-y="2048"  />

      
      <glyph glyph-name="uni6b" unicode="&#x6b;" d="M119 670C119 443.33 128.33 272.67 147 158C157 102 177.33 61.67 208 37C238.67 12.33 282 0 338 0C459.33 0 520 60 520 180C520 199.33 519 228 517 266C515 304 514 332 514 350C514 403.33 530.33 430 563 430C587.67 430 615.67 406.67 647 360C670.33 327.33 714.67 255.67 780 145C814 87.67 849.17 49.17 885.50 29.50C921.83 9.83 974 0 1042 0C1173.33 0 1239 36.33 1239 109C1239 118.33 1237.67 128.17 1235 138.50C1232.33 148.83 1228.17 159.67 1222.50 171C1216.83 182.33 1211 193.50 1205 204.50C1199 215.50 1190.50 228.67 1179.50 244C1168.50 259.33 1159 272 1151 282L1117 324L1082 366L1043 411L1004 457C999.33 461 993 467.83 985 477.50C977 487.17 971.33 494.33 968 499L955 516C950.33 522.67 947 529.17 945 535.50C943 541.83 942 547.67 942 553C942 573.67 970 612 1026 668L1065 707C1083 724.33 1095.67 736.50 1103 743.50C1110.33 750.50 1120.50 760.83 1133.50 774.50C1146.50 788.17 1155.67 798.33 1161 805C1166.33 811.67 1173.17 820.83 1181.50 832.50C1189.83 844.17 1195.67 853.67 1199 861C1202.33 868.33 1205.33 876.83 1208 886.50C1210.67 896.17 1212 905.67 1212 915C1212 987.67 1154 1024 1038 1024C967.33 1024 915.17 1016.17 881.50 1000.50C847.83 984.83 815.33 954.33 784 909C730 830.33 691.33 777.33 668 750C624 700.67 588.33 676 561 676C529.67 675.33 514 698.33 514 745C514 794.33 515.33 866 518 960C520.67 1054 522 1124.33 522 1171C522 1268.33 508.83 1336.50 482.50 1375.50C456.17 1414.50 406.67 1434 334 1434C278 1434 233.83 1420.50 201.50 1393.50C169.17 1366.50 149 1319 141 1251C126.33 1108.33 119 914.67 119 670Z"  horiz-adv-x="1284" vert-adv-y="2048"  />

      
      <glyph glyph-name="uni6c" unicode="&#x6c;" d="M123 727C123 451 129.67 262.67 143 162C157 54 219.33 0 330 0C438 0 498.67 54 512 162C525.33 262.67 532 451 532 727C532 989 525.33 1170.67 512 1272C505.33 1328 487 1369 457 1395C427 1421 384 1434 328 1434C218 1434 156.33 1380 143 1272C129.67 1170.67 123 989 123 727Z"  horiz-adv-x="655" vert-adv-y="2048"  />

      
      <glyph glyph-name="uni6d" unicode="&#x6d;" d="M125 522C125 332 130.33 212 141 162C155 54 224.67 0 350 0C411.33 0 457.50 10.17 488.50 30.50C519.50 50.83 535 87.67 535 141L535 489C535 629.67 584 700 682 700C777.33 700 825 629.67 825 489L825 203C825 129 840.50 76.67 871.50 46C902.50 15.33 947.33 0 1006 0C1140.67 0 1208 67.67 1208 203L1208 508C1212.67 636 1263.33 700 1360 700C1452.67 700 1499 629.67 1499 489L1499 141C1499 87.67 1514.33 50.83 1545 30.50C1575.67 10.17 1621.67 0 1683 0C1807.67 0 1876.67 54 1890 162C1901.33 212 1907 335.33 1907 532C1907 570.67 1904.50 609.17 1899.50 647.50C1894.50 685.83 1883.50 728.50 1866.50 775.50C1849.50 822.50 1828 863.67 1802 899C1776 934.33 1739.50 964 1692.50 988C1645.50 1012 1591.33 1024 1530 1024C1376.67 1024 1251.67 960.67 1155 834C1092.33 960.67 991.33 1024 852 1024C726.67 1024 621 966 535 850C536.33 919.33 521.50 965.67 490.50 989C459.50 1012.33 412.67 1024 350 1024C224 1024 154.33 970 141 862C130.33 811.33 125 698 125 522Z"  horiz-adv-x="2011" vert-adv-y="2048"  />

      
      <glyph glyph-name="uni6e" unicode="&#x6e;" d="M125 522C125 354 132.33 235.33 147 166C161 55.33 228 0 348 0C472.67 0 535 54 535 162L535 489C534.33 629.67 589.33 700 700 700C749.33 700 787.33 680.83 814 642.50C840.67 604.17 854 553 854 489L854 162C854 54 914 0 1034 0C1158.67 0 1227.67 54 1241 162C1256.33 231.33 1264 354.67 1264 532C1264 580 1258.17 629.33 1246.50 680C1234.83 730.67 1215.67 783.33 1189 838C1162.33 892.67 1121.67 937.33 1067 972C1012.33 1006.67 946.67 1024 870 1024C736 1024 623.33 966 532 850C534 919.33 519.50 965.67 488.50 989C457.50 1012.33 410.67 1024 348 1024C227.33 1024 160.33 968.67 147 858C132.33 788 125 676 125 522Z"  horiz-adv-x="1359" vert-adv-y="2048"  />

      
      <glyph glyph-name="uni6f" unicode="&#x6f;" d="M76 514C76 346 133 215.33 247 122C361 28.67 502.67-18 672-18C841.33-18 983 28.67 1097 122C1211 215.33 1268 346 1268 514C1268 680.67 1211 811.17 1097 905.50C983 999.83 841.33 1047 672 1047C502.67 1047 361 999.83 247 905.50C133 811.17 76 680.67 76 514ZM485 514C485 600 501.50 665.83 534.50 711.50C567.50 757.17 613.33 780 672 780C730.67 780 776.33 756.83 809 710.50C841.67 664.17 858 598.67 858 514C858 429.33 841.67 363.83 809 317.50C776.33 271.17 730.67 248 672 248C613.33 248 567.50 270.83 534.50 316.50C501.50 362.17 485 428 485 514Z"  horiz-adv-x="1343" vert-adv-y="2048"  />

      
      <glyph glyph-name="uni70" unicode="&#x70;" d="M131 297C131 36.33 140.67-152 160-268C169.33-325.33 188.33-366.67 217-392C245.67-417.33 288-430 344-430C420.67-430 472-409.83 498-369.50C524-329.17 537-262 537-168C536.33-47.33 532 45 524 109L528 109C612 28.33 716-12 840-12C968-12 1076.67 35.67 1166 131C1255.33 226.33 1300 353.33 1300 512C1300 673.33 1256.50 801 1169.50 895C1082.50 989 972.67 1036 840 1036C718 1036 613.33 991 526 901C511.33 983 450 1024 342 1024C287.33 1024 245.67 1011.33 217 986C188.33 960.67 169.33 919.33 160 862C140.67 756 131 567.67 131 297ZM528 432L528 586C528 642 545.17 686 579.50 718C613.83 750 657.67 766 711 766C772.33 766 820.67 743.50 856 698.50C891.33 653.50 909 591.33 909 512C909 432.67 891.33 370.50 856 325.50C820.67 280.50 772.33 258 711 258C659 258 615.50 274.67 580.50 308C545.50 341.33 528 382.67 528 432Z"  horiz-adv-x="1366" vert-adv-y="2048"  />

      
      <glyph glyph-name="uni71" unicode="&#x71;" d="M82 512C82 353.33 126.67 226.33 216 131C305.33 35.67 414.33-12 543-12C667-12 770.67 28.33 854 109L858 109C850 44.33 846-48 846-168C846-262 858.83-329.17 884.50-369.50C910.17-409.83 961.33-430 1038-430C1094-430 1136.50-417.33 1165.50-392C1194.50-366.67 1213.67-325.33 1223-268C1241.67-152 1251 36.33 1251 297C1251.67 567 1242.33 755.33 1223 862C1213 919.33 1193.67 960.67 1165 986C1136.33 1011.33 1094.67 1024 1040 1024C932.67 1024 871.33 983 856 901C768.67 991 664.33 1036 543 1036C410.33 1036 300.33 989 213 895C125.67 801 82 673.33 82 512ZM473 512C473 591.33 490.83 653.50 526.50 698.50C562.17 743.50 610.67 766 672 766C725.33 766 769 750 803 718C837 686 854 642 854 586L854 432C854 382.67 836.67 341.33 802 308C767.33 274.67 724 258 672 258C610.67 258 562.17 280.50 526.50 325.50C490.83 370.50 473 432.67 473 512Z"  horiz-adv-x="1374" vert-adv-y="2048"  />

      
      <glyph glyph-name="uni72" unicode="&#x72;" d="M123 522C123 339.33 129 219.33 141 162C155 54 222 0 342 0C398 0 443.67 16.33 479 49C514.33 81.67 532 126 532 182L532 489C532 629.67 569.67 700 645 700C671 700 700.33 687.83 733 663.50C765.67 639.17 798.33 627 831 627C877.67 627 917.33 645.33 950 682C982.67 718.67 999 765 999 821C999 879.67 981.33 928.17 946 966.50C910.67 1004.83 865 1024 809 1024C708.33 1024 617.67 966 537 850L532 850C534 919.33 519.50 965.67 488.50 989C457.50 1012.33 410.67 1024 348 1024C223.33 1024 154.33 970 141 862C129 804.67 123 691.33 123 522Z"  horiz-adv-x="1007" vert-adv-y="2048"  />

      
      <glyph glyph-name="uni73" unicode="&#x73;" d="M61 195C61 122.33 96 69.67 166 37C244 1.67 371.67-16 549-16C591-16 634.67-11.67 680-3C725.33 5.67 774.17 20.67 826.50 42C878.83 63.33 921.50 97.17 954.50 143.50C987.50 189.83 1004 245.67 1004 311C1004 449 924.67 544.67 766 598C754 602 725.33 612.33 680 629C634.67 645.67 599.67 658 575 666C501.67 688.67 465 717.83 465 753.50C465 789.17 499 807 567 807C616.33 807 675.83 792 745.50 762C815.17 732 860.33 717 881 717C939.67 717 969 758.67 969 842C969 974 833 1040 561 1040C480.33 1040 405.17 1031.17 335.50 1013.50C265.83 995.83 204.17 961.50 150.50 910.50C96.83 859.50 70 794.33 70 715C70 586.33 147 489.33 301 424C379 390.67 435 368.67 469 358C556.33 330.67 600 301.33 600 270C600 233.33 568.67 215 506 215C454 215 405.17 224.17 359.50 242.50C313.83 260.83 274.67 279 242 297C209.33 315 184 324 166 324C96 324 61 281 61 195Z"  horiz-adv-x="1064" vert-adv-y="2048"  />

      
      <glyph glyph-name="uni74" unicode="&#x74;" d="M25 887C25 854.33 37.17 825.33 61.50 800C85.83 774.67 123.33 762 174 762L186 762L186 426C186 282.67 220.83 175.83 290.50 105.50C360.17 35.17 448.33 0 555 0C599 0 643.17 4.50 687.50 13.50C731.83 22.50 774.83 42.67 816.50 74C858.17 105.33 879 145.67 879 195C879 231.67 870.50 260.17 853.50 280.50C836.50 300.83 816.33 311 793 311C781.67 311 763.83 307 739.50 299C715.17 291 693.33 287 674 287C608 287 575 336 575 434L575 762L717 762C769 762 806.83 774.67 830.50 800C854.17 825.33 866 855 866 889C866.67 979 817 1024 717 1024L575 1024L575 1040C575 1090.67 571.67 1127 565 1149C543 1240.33 483.67 1286 387 1286C329.67 1286 284.67 1271.50 252 1242.50C219.33 1213.50 200.33 1177 195 1133C189 1099.67 186 1068.67 186 1040L186 1024L174 1024C74.67 1024 25 978.33 25 887Z"  horiz-adv-x="907" vert-adv-y="2048"  />

      
      <glyph glyph-name="uni75" unicode="&#x75;" d="M100 492C100 444 105.17 394.67 115.50 344C125.83 293.33 143.33 240.67 168 186C192.67 131.33 230.83 86.67 282.50 52C334.17 17.33 396.33 0 469 0C613.67 0 734.33 58 831 174C829.67 104.67 844.50 58.33 875.50 35C906.50 11.67 953.33 0 1016 0C1136.67 0 1203.67 55.33 1217 166C1231.67 236 1239 348 1239 502C1239.67 670 1232.33 788.67 1217 858C1203 968.67 1136 1024 1016 1024C891.33 1024 829 970 829 862L829 535C829.67 394.33 774.67 324 664 324C614.67 324 576.67 343.17 550 381.50C523.33 419.83 510 471 510 535L510 862C510 970 450 1024 330 1024C205.33 1024 136.33 970 123 862C107.67 792.67 100 669.33 100 492Z"  horiz-adv-x="1359" vert-adv-y="2048"  />

      
      <glyph glyph-name="uni76" unicode="&#x76;" d="M37 881C37 817 63.17 711.17 115.50 563.50C167.83 415.83 220.67 296.33 274 205C306 151.67 337.67 108 369 74C400.33 38 435.33 14.67 474 4C512.67-6.67 563.50-12 626.50-12C689.50-12 740.50-6.50 779.50 4.50C818.50 15.50 853.67 38.67 885 74C916.33 108 947.67 151.67 979 205C1033.67 295 1087 414.17 1139 562.50C1191 710.83 1217 817 1217 881C1217 921.67 1204 955.67 1178 983C1152 1010.33 1099.33 1024 1020 1024C946 1024 894.33 1015.17 865 997.50C835.67 979.83 816.33 946.33 807 897C803 879 797.17 847.50 789.50 802.50C781.83 757.50 775.33 720.33 770 691C764.67 661.67 757.17 625.83 747.50 583.50C737.83 541.17 727.67 501.67 717 465C715.67 462.33 714.33 457.67 713 451C684.33 357.67 655.67 310.33 627 309C618.33 309 610.67 311.67 604 317C585.33 332.33 563 381.67 537 465C525.67 501.67 515.33 541.17 506 583.50C496.67 625.83 489.17 661.67 483.50 691C477.83 720.33 471.17 757.50 463.50 802.50C455.83 847.50 450 879 446 897C436.67 946.33 417.33 979.83 388 997.50C358.67 1015.17 307 1024 233 1024C191 1024 156 1019.50 128 1010.50C100 1001.50 79.83 989.17 67.50 973.50C55.17 957.83 47 943.33 43 930C39 916.67 37 900.33 37 881Z"  horiz-adv-x="1253" vert-adv-y="2048"  />

      
      <glyph glyph-name="uni77" unicode="&#x77;" d="M53 881C53 793.67 78.67 658.17 130 474.50C181.33 290.83 239 158 303 76C334.33 36 367.33 10 402-2C436.67-14 478.67-20 528-20C585.33-20 632.17-13.17 668.50 0.50C704.83 14.17 736 42 762 84C798.67 144 832 219 862 309C862 311.67 863.33 317.17 866 325.50C868.67 333.83 870.67 339.67 872 343C873.33 346.33 875.50 351.17 878.50 357.50C881.50 363.83 884.67 368 888 370C891.33 372 895 373 899 373C903 373 906.67 372 910 370C913.33 368 916.50 363.83 919.50 357.50C922.50 351.17 924.67 346.33 926 343C927.33 339.67 929.33 333.83 932 325.50C934.67 317.17 936 311.67 936 309C966 219 999.33 144 1036 84C1062 41.33 1093.17 13.33 1129.50 0C1165.83-13.33 1212.67-20 1270-20C1318.67-20 1360.50-13.83 1395.50-1.50C1430.50 10.83 1463.67 36.67 1495 76C1559 158 1616.67 290.83 1668 474.50C1719.33 658.17 1745 793.67 1745 881C1745 927 1731.33 962.33 1704 987C1676.67 1011.67 1620.67 1024 1536 1024C1465.33 1024 1418 1014.50 1394 995.50C1370 976.50 1354.67 941 1348 889C1314.67 636.33 1297.33 508 1296 504C1277.33 390.67 1251.67 333.33 1219 332L1217 332C1194.33 332 1174.67 358 1158 410C1141.33 463.33 1125.33 534.33 1110 623C1093.33 723 1080.33 808.33 1071 879C1064.33 937.67 1050 976.50 1028 995.50C1006 1014.50 963 1024 899 1024C835 1024 792 1014.50 770 995.50C748 976.50 733.67 937.67 727 879C717.67 808.33 704.67 723 688 623C673.33 534.33 657.33 463.33 640 410C623.33 358 603.67 332 581 332L580 332C547.33 333.33 521.33 390.67 502 504C500.67 508 483.67 636.33 451 889C443.67 941 428 976.50 404 995.50C380 1014.50 332.67 1024 262 1024C177.33 1024 121.33 1011.83 94 987.50C66.67 963.17 53 927.67 53 881Z"  horiz-adv-x="1798" vert-adv-y="2048"  />

      
      <glyph glyph-name="uni78" unicode="&#x78;" d="M53 96C53 32 117.33 0 246 0C322 0 376.33 9.83 409 29.50C441.67 49.17 467.67 81.67 487 127L555 272C556.33 275.33 558 279.33 560 284L565 296L570 308L575 321L581 331C583 334.33 585 337.33 587 340C589 342.67 591.33 345.33 594 348L601 355C603 357 605.33 358.33 608 359C610.67 359.67 613.33 360 616 360C622 360 627 358.33 631 355C635 351.67 639.33 346 644 338C648.67 330 652 323.83 654 319.50C656 315.17 659.83 306.83 665.50 294.50C671.17 282.17 674.67 274.67 676 272L743 127C762.33 81.67 788.33 49.17 821 29.50C853.67 9.83 908.33 0 985 0C1113.67 0 1178 32 1178 96C1178 110 1176.50 123.17 1173.50 135.50C1170.50 147.83 1165.33 161.17 1158 175.50C1150.67 189.83 1144 201.67 1138 211L1109 256L1079 303C1061.67 330.33 1040.33 360.67 1015 394C989.67 427.33 971.17 453.50 959.50 472.50C947.83 491.50 942 509.33 942 526C942 537.33 943 547.33 945 556C947 564.67 951.83 575.83 959.50 589.50C967.17 603.17 973.67 614.50 979 623.50C984.33 632.50 995.33 648.67 1012 672L1053 731C1058.33 737.67 1065.33 748.17 1074 762.50C1082.67 776.83 1089.17 786.83 1093.50 792.50C1097.83 798.17 1103 806.17 1109 816.50C1115 826.83 1119.33 834.67 1122 840L1133 860C1137 868 1139.67 874.83 1141 880.50C1142.33 886.17 1143.67 892.50 1145 899.50C1146.33 906.50 1147 913.33 1147 920C1147 989.33 1088.33 1024 971 1024C889 1024 830.33 1015.17 795 997.50C759.67 979.83 734.33 947.67 719 901C711 872.33 693.33 824.67 666 758C664.67 754.67 663.33 750.33 662 745C645.33 704.33 629.33 684 614 684C598 685.33 581.67 710 565 758C537.67 824.67 520 872.33 512 901C496.67 947.67 471.33 979.83 436 997.50C400.67 1015.17 342 1024 260 1024C142.67 1024 84 989.33 84 920C84 912.67 84.67 905.67 86 899C87.33 892.33 88.67 886.17 90 880.50C91.33 874.83 94 868 98 860L109 840C111.67 834 116 826 122 816C128 806 133 798.17 137 792.50C141 786.83 147.50 776.83 156.50 762.50C165.50 748.17 172.67 737.67 178 731L219 672C235.67 648.67 246.67 632.50 252 623.50C257.33 614.50 263.83 603.17 271.50 589.50C279.17 575.83 284 564.50 286 555.50C288 546.50 289 536.67 289 526C289 510 283.17 492.33 271.50 473C259.83 453.67 241.50 427.33 216.50 394C191.50 360.67 170 330.33 152 303L122 256L93 211C87 201.67 80.17 189.83 72.50 175.50C64.83 161.17 59.67 147.67 57 135C54.33 122.33 53 109.33 53 96Z"  horiz-adv-x="1230" vert-adv-y="2048"  />

      
      <glyph glyph-name="uni79" unicode="&#x79;" d="M61 887C61 809 89 704.33 145 573C198.33 449 253 343.33 309 256C328.33 224.67 354.33 185.50 387 138.50C419.67 91.50 441.50 57.67 452.50 37C463.50 16.33 469-3.67 469-23C469-58.33 442.33-106.67 389-168C381-177.33 366-193.33 344-216C322-238.67 307.33-255.83 300-267.50C292.67-279.17 289-291.67 289-305C289-349 309.67-384 351-410C392.33-436 452.67-449 532-449C604.67-448.33 665-417.33 713-356C752.33-304.67 802.67-221 864-105C925.33 11 978 120.33 1022 223C1070 336.33 1115.17 460 1157.50 594C1199.83 728 1221 823.67 1221 881C1221 921.67 1208 955.67 1182 983C1156 1010.33 1103.33 1024 1024 1024C950 1024 897.67 1014.83 867 996.50C836.33 978.17 816.33 945 807 897C801.67 865.67 793.83 803.50 783.50 710.50C773.17 617.50 762 542.33 750 485L736 427C734 418.33 730 403.67 724 383C718 362.33 711.17 348.33 703.50 341C695.83 333.67 687.33 330 678 330C645.33 330.67 612.67 382.33 580 485C533.33 634.33 498.33 771.67 475 897C465.67 945 445.67 978.17 415 996.50C384.33 1014.83 332 1024 258 1024C178.67 1024 125.67 1010.33 99 983C73.67 957 61 925 61 887Z"  horiz-adv-x="1261" vert-adv-y="2048"  />

      
      <glyph glyph-name="uni7a" unicode="&#x7a;" d="M82 119C82 45 129 5.33 223 0C339-6.67 441.33-10 530-10C668-10 788.33-7.33 891-2C1012.33 6 1073 55.67 1073 147L1073 168L1073 195C1073 199 1072.67 207.50 1072 220.50C1071.33 233.50 1069.67 242.67 1067 248C1064.33 253.33 1061.17 261.17 1057.50 271.50C1053.83 281.83 1049 289.33 1043 294L1022 310C1014 316 1004 320.50 992 323.50C980 326.50 967.33 328 954 328C919.33 328 865.67 315 793 289C723.67 264.33 680 252 662 252L659 252C641.67 254.67 630.50 260.83 625.50 270.50C620.50 280.17 621.83 293.50 629.50 310.50C637.17 327.50 651.33 347 672 369L936 662C1019.33 756 1061 837 1061 905C1061 979 1014 1018.67 920 1024C803.33 1030.67 700.67 1034 612 1034C490.67 1034 378.67 1031.33 276 1026C154.67 1018 94 968.33 94 877L94 856L94 829C94 825 94.33 816.50 95 803.50C95.67 790.50 97.33 781.33 100 776C102.67 770.67 105.83 762.83 109.50 752.50C113.17 742.17 118 734.67 124 730L145 714C153.67 708 163.83 703.50 175.50 700.50C187.17 697.50 199.67 696 213 696C248.33 696 298 709 362 735C423.33 759.67 463 772 481 772L483 772C501 769.33 512.67 763.17 518 753.50C523.33 743.83 522.33 730.50 515 713.50C507.67 696.50 493 677 471 655C364.33 548.33 276.33 450.67 207 362C123.67 260 82 179 82 119Z"  horiz-adv-x="1157" vert-adv-y="2048"  />

      
      <glyph glyph-name="unia8" unicode="&#xa8;" d="M152 1319C152 1264.33 170.33 1221.67 207 1191C243.67 1160.33 289.33 1145 344 1145C397.33 1145 442 1160.33 478 1191C514 1221.67 532 1264.33 532 1319C532 1373.67 514 1416.67 478 1448C442 1479.33 397.33 1495 344 1495C289.33 1495 243.67 1479.33 207 1448C170.33 1416.67 152 1373.67 152 1319ZM664 1319C664 1264.33 682.33 1221.67 719 1191C755.67 1160.33 801.33 1145 856 1145C909.33 1145 954 1160.33 990 1191C1026 1221.67 1044 1264.33 1044 1319C1044 1373.67 1026 1416.67 990 1448C954 1479.33 909.33 1495 856 1495C801.33 1495 755.67 1479.33 719 1448C682.33 1416.67 664 1373.67 664 1319Z"  horiz-adv-x="1196" vert-adv-y="2048"  />

      
      <glyph glyph-name="uniab" unicode="&#xab;" d="M61 522.50C61 485.50 75.33 439.67 104 385C124.67 347 167 291.67 231 219C268.33 175.67 303 145.33 335 128C367 110.67 407 102 455 102C555.67 102 606 130 606 186C606 192 605.67 197.67 605 203C604.33 208.33 602.67 213.33 600 218C597.33 222.67 595 227.17 593 231.50C591 235.83 586.83 241 580.50 247C574.17 253 569.67 257.83 567 261.50C564.33 265.17 558.67 271.33 550 280L530 299C467.33 366.33 431.33 405.33 422 416C386.67 462 369 497.33 369 522C369 552.67 386.67 588.33 422 629C434 643.67 470 682.33 530 745L550 765C558.67 773.67 564.33 779.67 567 783C569.67 786.33 574.17 791.17 580.50 797.50C586.83 803.83 591 809 593 813C595 817 597.33 821.50 600 826.50C602.67 831.50 604.33 836.67 605 842C605.67 847.33 606 852.67 606 858C606.67 914 556.33 942 455 942C407 942 366.83 933.50 334.50 916.50C302.17 899.50 267.67 869 231 825C167 752.33 124.67 697 104 659C75.33 605 61 559.50 61 522.50ZM559 522C559 484 579.67 437.67 621 383C638.33 358.33 686 305.67 764 225C843.33 143 924.67 102 1008 102C1112.67 102 1165 130 1165 186C1165 208 1159.67 226.50 1149 241.50C1138.33 256.50 1119.33 275.67 1092 299C1079.33 309.67 1056.67 327.67 1024 353L954 408C951.33 410.67 946.33 415 939 421C931.67 427 926.67 431.33 924 434L910 447C904 453.67 900 458.33 898 461C896 463.67 892.67 467.33 888 472C883.33 476.67 879.83 481.17 877.50 485.50C875.17 489.83 872.67 494 870 498C867.33 502 865.67 506 865 510C864.33 514 864 518 864 522C864 526 864.33 529.83 865 533.50C865.67 537.17 866.67 540.67 868 544C869.33 547.33 871.50 551 874.50 555C877.50 559 880.33 562.67 883 566L893 579C897 583.67 900.33 587.33 903 590C905.67 592.67 909.83 596.33 915.50 601C921.17 605.67 925.33 609.33 928 612C930.67 614.67 935 618.83 941 624.50C947 630.17 951.33 634.33 954 637L1024 691C1057.33 716.33 1080 734.33 1092 745C1119.33 768.33 1138.33 787.50 1149 802.50C1159.67 817.50 1165 836 1165 858C1165.67 914 1113.33 942 1008 942C926 942 844.67 900.33 764 817C682 731.67 634.33 680 621 662C579.67 605.33 559 558.67 559 522Z"  horiz-adv-x="1226" vert-adv-y="2048"  />

      
      <glyph glyph-name="uniad" unicode="&#xad;" d="M61 565.50C61 464.50 123.33 414 248 414L592 414C716 413.33 778 464.33 778 567C778 667 716 717 592 717L248 717C123.33 717 61 666.50 61 565.50Z"  horiz-adv-x="839" vert-adv-y="2048"  />

      
      <glyph glyph-name="unibb" unicode="&#xbb;" d="M61 186C61 130 113.67 102 219 102C302.33 102 383.67 143 463 225C540.33 305.67 588 358.33 606 383C647.33 437.67 668 484 668 522C667.33 559.33 646.67 606 606 662C592.67 679.33 545 731 463 817C382.33 900.33 301 942 219 942C113.67 942 61 914 61 858C61 836 66.50 817.50 77.50 802.50C88.50 787.50 107.67 768.33 135 745C147.67 734.33 170.33 716.33 203 691L272 637C274.67 634.33 279.83 629.83 287.50 623.50C295.17 617.17 300.33 612.67 303 610L316 597C322.67 591 327 586.67 329 584C331 581.33 334.33 577.50 339 572.50C343.67 567.50 347 563 349 559C351 555 353.33 551 356 547C358.67 543 360.33 538.83 361 534.50C361.67 530.17 362 526 362 522C362 518 361.67 514.33 361 511C360.33 507.67 359.33 504.33 358 501C356.67 497.67 354.67 493.83 352 489.50C349.33 485.17 346.67 481.33 344 478L334 466C330 461.33 326.50 457.67 323.50 455C320.50 452.33 316.33 448.50 311 443.50C305.67 438.50 301.67 434.67 299 432C296.33 429.33 291.83 425.33 285.50 420C279.17 414.67 274.67 410.67 272 408L203 353C169.67 327.67 147 309.67 135 299C107.67 275.67 88.50 256.50 77.50 241.50C66.50 226.50 61 208 61 186ZM621 186C621 130 671.33 102 772 102C820 102 860 110.50 892 127.50C924 144.50 958.33 175 995 219C1059 291.67 1101.33 347 1122 385C1150.67 439.67 1165 485.33 1165 522C1165 558.67 1150.67 604.33 1122 659C1101.33 697 1059 752.33 995 825C958.33 869 924 899.50 892 916.50C860 933.50 820 942 772 942C671.33 942 621 914 621 858C621 852.67 621.33 847.33 622 842C622.67 836.67 624.33 831.50 627 826.50C629.67 821.50 632 817 634 813C636 809 640 803.83 646 797.50C652 791.17 656.50 786.33 659.50 783C662.50 779.67 668.33 773.67 677 765L696 745C756.67 683 793 644.33 805 629C840.33 587.67 858 552 858 522C858 498 840.33 462.67 805 416C795 404.67 758.67 365.67 696 299L677 280C668.33 270.67 662.50 264.33 659.50 261C656.50 257.67 652 253 646 247C640 241 636 235.83 634 231.50C632 227.17 629.67 222.67 627 218C624.33 213.33 622.67 208.17 622 202.50C621.33 196.83 621 191.33 621 186Z"  horiz-adv-x="1226" vert-adv-y="2048"  />

      
      <glyph glyph-name="uni0401" unicode="&#x0401;" d="M164 645C164 440.33 170 295 182 209C192 139 214.67 89.33 250 60C285.33 30.67 333.67 12.67 395 6C515.67-6 634.67-12 752-12C846-12 938.67-8.67 1030-2C1170.67 4.67 1241 64 1241 176C1241 282.67 1193.33 336 1098 336C1073.33 336 1013.50 327.83 918.50 311.50C823.50 295.17 748 287 692 287C656.67 287 630.50 295 613.50 311C596.50 327 588 357.67 588 403C588 445.67 594.33 475.50 607 492.50C619.67 509.50 648 518 692 518C727.33 518 769 514.67 817 508C865 501.33 900 498 922 498C1017.33 498 1065 547.17 1065 645.50C1065 743.83 1017.33 793 922 793C900 793 865 789.50 817 782.50C769 775.50 727.33 772 692 772C648.67 772 620.50 780.67 607.50 798C594.50 815.33 588 845 588 887C588 931.67 596.50 962.33 613.50 979C630.50 995.67 656.67 1004 692 1004C745.33 1004 817 995.67 907 979C997 962.33 1053.67 954 1077 954C1173 954 1221 1007.33 1221 1114C1221 1223.33 1150.67 1282 1010 1290C907.33 1298.67 821.33 1303 752 1303C634 1302.33 515 1296 395 1284C333.67 1277.33 285.17 1259.17 249.50 1229.50C213.83 1199.83 191.33 1150.33 182 1081C170 995 164 849.67 164 645ZM231 1565C231 1510.33 249.50 1467.67 286.50 1437C323.50 1406.33 369.33 1391 424 1391C477.33 1391 522 1406.33 558 1437C594 1467.67 612 1510.33 612 1565C612 1619.67 594 1662.67 558 1694C522 1725.33 477.33 1741 424 1741C369.33 1741 323.50 1725.33 286.50 1694C249.50 1662.67 231 1619.67 231 1565ZM743 1565C743 1510.33 761.50 1467.67 798.50 1437C835.50 1406.33 881.33 1391 936 1391C989.33 1391 1034 1406.33 1070 1437C1106 1467.67 1124 1510.33 1124 1565C1124 1619.67 1106 1662.67 1070 1694C1034 1725.33 989.33 1741 936 1741C881.33 1741 835.50 1725.33 798.50 1694C761.50 1662.67 743 1619.67 743 1565Z"  horiz-adv-x="1341" vert-adv-y="2048"  />

      
      <glyph glyph-name="uni0410" unicode="&#x0410;" d="M61 176C61 58.67 135 0 283 0C318.33 0 349.33 4.50 376 13.50C402.67 22.50 423.17 32.33 437.50 43C451.83 53.67 464.50 70 475.50 92C486.50 114 493.67 130.83 497 142.50C500.33 154.17 504.67 172.33 510 197C515.33 224.33 521.67 242 529 250C536.33 258 551 262 573 262L956 262C972.67 262 984.83 257.33 992.50 248C1000.17 238.67 1006.67 221.67 1012 197C1018.67 168.33 1024.67 145.67 1030 129C1035.33 112.33 1045.83 92.17 1061.50 68.50C1077.17 44.83 1099.67 27.50 1129 16.50C1158.33 5.50 1195 0 1239 0C1285.67 0 1324.67 5.17 1356 15.50C1387.33 25.83 1410.17 40.50 1424.50 59.50C1438.83 78.50 1448.33 96.83 1453 114.50C1457.67 132.17 1460 152.67 1460 176C1460 259.33 1428.17 393.83 1364.50 579.50C1300.83 765.17 1234.33 914.67 1165 1028C1117.67 1107.33 1079.33 1163.67 1050 1197C1020.67 1230.33 983.50 1256.33 938.50 1275C893.50 1293.67 834 1303 760 1303C657.33 1303 581.33 1285.50 532 1250.50C482.67 1215.50 424 1141.33 356 1028C286.67 913.33 220.17 763.50 156.50 578.50C92.83 393.50 61 259.33 61 176ZM594 580C594 612.67 601.33 654.33 616 705C639.33 785 661.67 843.83 683 881.50C704.33 919.17 730.67 938 762 938C792 938 817.83 919 839.50 881C861.17 843 883 784.33 905 705C919 653 926 611.33 926 580C926 542.67 904 524 860 524L668 524C618.67 524.67 594 543.33 594 580Z"  horiz-adv-x="1521" vert-adv-y="2048"  />

      
      <glyph glyph-name="uni0411" unicode="&#x0411;" d="M164 625C164 457 170.67 326.33 184 233C200.67 118.33 269.67 47.33 391 20C467 1.33 570-8 700-8C879.33-8 1026.33 26.17 1141 94.50C1255.67 162.83 1313 269.33 1313 414C1313 530 1272.33 623.50 1191 694.50C1109.67 765.50 982.33 801 809 801C781.67 801 753.33 800 724 798C694.67 796 677.33 795 672 795C640.67 795 619.50 803 608.50 819C597.50 835 592 867 592 915C592 949.67 599.50 973.17 614.50 985.50C629.50 997.83 662.33 1004 713 1004C786.33 1004 864 990 946 962C1028 934 1078.67 920 1098 920C1134.67 920 1164.33 931.50 1187 954.50C1209.67 977.50 1224.33 1001.67 1231 1027C1237.67 1052.33 1241 1079.33 1241 1108C1241 1162.67 1225 1208 1193 1244C1161 1280 1106.67 1298 1030 1298C1006.67 1298 932.50 1296.67 807.50 1294C682.50 1291.33 544.33 1290 393 1290C335.67 1290 288.50 1274 251.50 1242C214.50 1210 192 1162.67 184 1100C170.67 999.33 164 841 164 625ZM588 401.50C588 463.17 594 504.50 606 525.50C618 546.50 646 557 690 557C820 557 885 505.17 885 401.50C885 297.83 820 246 690 246C646.67 246 618.83 256.50 606.50 277.50C594.17 298.50 588 339.83 588 401.50Z"  horiz-adv-x="1409" vert-adv-y="2048"  />

      
      <glyph glyph-name="uni0412" unicode="&#x0412;" d="M164 647C164 447.67 172 287.33 188 166C200.67 66 273.33 10.67 406 0C492-8 608-12 754-12C834-12 907.83-5.83 975.50 6.50C1043.17 18.83 1106.33 38.50 1165 65.50C1223.67 92.50 1269.50 131.83 1302.50 183.50C1335.50 235.17 1352 296.33 1352 367C1352 485.67 1300.67 571 1198 623C1166.67 637.67 1139.33 648.33 1116 655L1116 664C1153.33 686 1178 701.67 1190 711C1270.67 772.33 1311 855.67 1311 961C1310.33 1189 1120.33 1303 741 1303C602.33 1302.33 490.67 1298 406 1290C272.67 1278.67 200 1224.67 188 1128C172 1006.67 164 846.33 164 647ZM596 385C596 453 605.50 497.33 624.50 518C643.50 538.67 678.33 549 729 549C786.33 549 833.17 536 869.50 510C905.83 484 924 443 924 387C924 333.67 904.50 293.33 865.50 266C826.50 238.67 777.67 225 719 225C672.33 225 640.17 236 622.50 258C604.83 280 596 322.33 596 385ZM596 920C596 985.33 605.17 1027.83 623.50 1047.50C641.83 1067.17 674.33 1077 721 1077C773 1077 816 1064.83 850 1040.50C884 1016.17 901 978 901 926C901 876.67 883 839 847 813C811 787 765 774 709 774C665 774 635.17 783.67 619.50 803C603.83 822.33 596 861.33 596 920Z"  horiz-adv-x="1529" vert-adv-y="2048"  />

      
      <glyph glyph-name="uni0413" unicode="&#x0413;" d="M164 551C164 367 170.67 240 184 170C198 48.67 263.83-12 381.50-12C499.17-12 564.67 48.67 578 170C591.33 240 598 367 598 551C598 589 596 646.67 592 724C588 801.33 586 854.33 586 883C586 922.33 594.17 951.17 610.50 969.50C626.83 987.83 653.33 997 690 997C751.33 997 816.17 982 884.50 952C952.83 922 996 907 1014 907C1050.67 907 1080.33 918.67 1103 942C1125.67 965.33 1140.33 989.67 1147 1015C1153.67 1040.33 1157 1067.33 1157 1096C1157 1208 1086 1269.33 944 1280C871.33 1286.67 786.67 1290 690 1290C578 1290 475 1286 381 1278C322.33 1274 276.50 1258 243.50 1230C210.50 1202 190 1157.33 182 1096C170 1001.33 164 819.67 164 551Z"  horiz-adv-x="1177" vert-adv-y="2048"  />

      
      <glyph glyph-name="uni0414" unicode="&#x0414;" d="M82 117C82 39 93.67-34.67 117-104C157.67-226 223-287 313-287C413-286.33 482.67-226 522-106C534.67-70.67 543.67-36 549-2C674.33-6 801.33-8 930-8C1063.33-8 1197.67-6 1333-2C1340.33-36 1349.33-70.67 1360-106C1399.33-226.67 1469-287 1569-287C1659-286.33 1724.33-225.33 1765-104C1788.33-34.67 1800 39 1800 117C1800 185 1780.17 237.17 1740.50 273.50C1700.83 309.83 1647.67 330 1581 334C1560.33 450 1528.67 573.83 1486 705.50C1443.33 837.17 1396.67 944.67 1346 1028C1298 1107.33 1259.33 1163.67 1230 1197C1200.67 1230.33 1163.50 1256.33 1118.50 1275C1073.50 1293.67 1014 1303 940 1303C837.33 1303 761.50 1285.50 712.50 1250.50C663.50 1215.50 605 1141.33 537 1028C486.33 944.67 439.50 836.83 396.50 704.50C353.50 572.17 321 448.67 299 334C232.33 330 179.50 309.83 140.50 273.50C101.50 237.17 82 185 82 117ZM739 422C751 514.67 775.67 618.33 813 733C814.33 735.67 815.67 739 817 743C858.33 859.67 900.17 917.83 942.50 917.50C984.83 917.17 1027 855.67 1069 733C1103 627 1128.33 523.33 1145 422C1157 348 1131.67 311 1069 311L819 311C756.33 311 729.67 348 739 422Z"  horiz-adv-x="1826" vert-adv-y="2048"  />

      
      <glyph glyph-name="uni0415" unicode="&#x0415;" d="M164 645C164 440.33 170 295 182 209C192 139 214.67 89.33 250 60C285.33 30.67 333.67 12.67 395 6C515.67-6 634.67-12 752-12C846-12 938.67-8.67 1030-2C1170.67 4.67 1241 64 1241 176C1241 282.67 1193.33 336 1098 336C1073.33 336 1013.50 327.83 918.50 311.50C823.50 295.17 748 287 692 287C656.67 287 630.50 295 613.50 311C596.50 327 588 357.67 588 403C588 445.67 594.33 475.50 607 492.50C619.67 509.50 648 518 692 518C727.33 518 769 514.67 817 508C865 501.33 900 498 922 498C1017.33 498 1065 547.17 1065 645.50C1065 743.83 1017.33 793 922 793C900 793 865 789.50 817 782.50C769 775.50 727.33 772 692 772C648.67 772 620.50 780.67 607.50 798C594.50 815.33 588 845 588 887C588 931.67 596.50 962.33 613.50 979C630.50 995.67 656.67 1004 692 1004C745.33 1004 817 995.67 907 979C997 962.33 1053.67 954 1077 954C1173 954 1221 1007.33 1221 1114C1221 1223.33 1150.67 1282 1010 1290C907.33 1298.67 821.33 1303 752 1303C634 1302.33 515 1296 395 1284C333.67 1277.33 285.17 1259.17 249.50 1229.50C213.83 1199.83 191.33 1150.33 182 1081C170 995 164 849.67 164 645Z"  horiz-adv-x="1341" vert-adv-y="2048"  />

      
      <glyph glyph-name="uni0416" unicode="&#x0416;" d="M82 125C82 41.67 144.67 0 270 0C357.33 0 420.83 13.33 460.50 40C500.17 66.67 544.67 119.67 594 199C644.67 281 689.67 357.33 729 428C770.33 499.33 808 534.83 842 534.50C876 534.17 894.33 513 897 471C903.67 305.67 909 209.33 913 182C931 60.67 997.33 0 1112 0C1224 0 1289 60.67 1307 182C1313.67 231.33 1318.33 327.67 1321 471C1321 513.67 1340 535 1378 535C1412.67 534.33 1450.33 498.67 1491 428C1530.33 357.33 1575.33 281 1626 199C1675.33 119.67 1719.83 66.67 1759.50 40C1799.17 13.33 1862.67 0 1950 0C2075.33 0 2138 41.67 2138 125C2138.67 164.33 2116.33 212.67 2071 270C2051.67 296 2018.17 336.33 1970.50 391C1922.83 445.67 1885.33 490.67 1858 526C1810 588 1786 636.67 1786 672C1785.33 714 1807.67 762.33 1853 817C1936.33 918.33 1989 983.33 2011 1012C2065.67 1081.33 2093 1134.33 2093 1171C2093 1250.33 2022.67 1290 1882 1290C1814 1290 1760.50 1277 1721.50 1251C1682.50 1225 1645.33 1178 1610 1110C1607.33 1106 1568.33 1036.33 1493 901C1453 830.33 1415.33 795 1380 795C1340.67 794.33 1320.33 817.33 1319 864C1312.33 1018.67 1308.33 1100 1307 1108C1293 1229.33 1227.17 1290 1109.50 1290C991.83 1290 926.33 1229.33 913 1108C911.67 1100.67 907.67 1020 901 866C898.33 818.67 878 795 840 795C804 795 766.33 830.33 727 901C651.67 1036.33 612.67 1106 610 1110C574.67 1178 537.50 1225 498.50 1251C459.50 1277 406 1290 338 1290C197.33 1290 127 1250.33 127 1171C127 1134.33 154.33 1081.33 209 1012C231 983.33 283.67 918.33 367 817C411.67 762.33 434 714 434 672C434 636 410 587.33 362 526C335.33 490.67 298.17 445.67 250.50 391C202.83 336.33 169.33 296 150 270C104.67 212.67 82 164.33 82 125Z"  horiz-adv-x="2220" vert-adv-y="2048"  />

      
      <glyph glyph-name="uni0417" unicode="&#x0417;" d="M102 254C102 144.67 161.67 70.33 281 31C384.33-3 508.33-20 653-20C719-20 783.33-13.33 846 0C908.67 13.33 969 34 1027 62C1085 90 1131.50 130.33 1166.50 183C1201.50 235.67 1219 296.83 1219 366.50C1219 436.17 1197.50 498 1154.50 552C1111.50 606 1053 642.67 979 662C1111.67 730 1178 829.67 1178 961C1178 1042.33 1150.67 1110.33 1096 1165C1041.33 1219.67 976.33 1257.67 901 1279C825.67 1300.33 743 1311 653 1311C507 1311 390.33 1296.67 303 1268C188.33 1228 131 1150.67 131 1036C131 1000.67 139.50 971.33 156.50 948C173.50 924.67 198.33 913 231 913C245 913 260.50 915.50 277.50 920.50C294.50 925.50 316.67 933.17 344 943.50C371.33 953.83 391 961 403 965C475.67 989 534.67 1001 580 1001C705.33 1001.67 768 965 768 891C768 819.67 723.67 784 635 784C621 784 601.67 785.17 577 787.50C552.33 789.83 534 791 522 791C440 790.33 399 745 399 655C399 563.67 440 518 522 518C541.33 518 567.67 519.33 601 522C634.33 524.67 658.67 526 674 526C752 526 791 493.33 791 428C791 346 734.33 305 621 305C544.33 305 464.33 320.67 381 352C360.33 360.67 337.33 370.67 312 382C286.67 393.33 267 401.50 253 406.50C239 411.50 224.33 414 209 414C173.67 414 147 399 129 369C111 339 102 300.67 102 254Z"  horiz-adv-x="1320" vert-adv-y="2048"  />

      
      <glyph glyph-name="uni0418" unicode="&#x0418;" d="M168 666C168 450 174.67 291.33 188 190C196.67 128.67 217.67 81.67 251 49C284.33 16.33 323.67 0 369 0C411 0 450.50 13.33 487.50 40C524.50 66.67 571 110 627 170C691.67 242 774 342.33 874 471L914 522L954 573L986 612C998 626 1008 636 1016 642C1024 648 1031.33 651 1038 651C1060 651 1071 630.67 1071 590C1071 582 1064.83 536 1052.50 452C1040.17 368 1034 300 1034 248C1034 220.67 1034.33 199.17 1035 183.50C1035.67 167.83 1039.50 146.67 1046.50 120C1053.50 93.33 1063.50 72.50 1076.50 57.50C1089.50 42.50 1109 29.17 1135 17.50C1161 5.83 1192.33 0 1229 0C1286.33 0 1333.50 16 1370.50 48C1407.50 80 1430 127.33 1438 190C1451.33 291.33 1458 450 1458 666C1458 864 1451.33 1008.67 1438 1100C1429.33 1161.33 1407.67 1208.33 1373 1241C1338.33 1273.67 1297.67 1290 1251 1290C1203.67 1290 1160.83 1276 1122.50 1248C1084.17 1220 1036.33 1171.33 979 1102L813 903L772 852C712 776.67 669 724.67 643 696C617 667.33 599.33 653 590 653C568 653.67 557 673.67 557 713C557 722.33 563.17 771 575.50 859C587.83 947 594 1014.33 594 1061C594 1092.33 592 1119 588 1141C584 1163 576.17 1186.50 564.50 1211.50C552.83 1236.50 532.67 1255.83 504 1269.50C475.33 1283.17 439 1290 395 1290C275 1290 206 1226.67 188 1100C174.67 1008.67 168 864 168 666Z"  horiz-adv-x="1626" vert-adv-y="2048"  />

      
      <glyph glyph-name="uni0419" unicode="&#x0419;" d="M168 666C168 450 174.67 291.33 188 190C196.67 128.67 217.67 81.67 251 49C284.33 16.33 323.67 0 369 0C411 0 450.50 13.33 487.50 40C524.50 66.67 571 110 627 170C691.67 242 774 342.33 874 471L914 522L954 573L986 612C998 626 1008 636 1016 642C1024 648 1031.33 651 1038 651C1060 651 1071 630.67 1071 590C1071 582 1064.83 536 1052.50 452C1040.17 368 1034 300 1034 248C1034 220.67 1034.33 199.17 1035 183.50C1035.67 167.83 1039.50 146.67 1046.50 120C1053.50 93.33 1063.50 72.50 1076.50 57.50C1089.50 42.50 1109 29.17 1135 17.50C1161 5.83 1192.33 0 1229 0C1286.33 0 1333.50 16 1370.50 48C1407.50 80 1430 127.33 1438 190C1451.33 291.33 1458 450 1458 666C1458 864 1451.33 1008.67 1438 1100C1429.33 1161.33 1407.67 1208.33 1373 1241C1338.33 1273.67 1297.67 1290 1251 1290C1203.67 1290 1160.83 1276 1122.50 1248C1084.17 1220 1036.33 1171.33 979 1102L813 903L772 852C712 776.67 669 724.67 643 696C617 667.33 599.33 653 590 653C568 653.67 557 673.67 557 713C557 722.33 563.17 771 575.50 859C587.83 947 594 1014.33 594 1061C594 1092.33 592 1119 588 1141C584 1163 576.17 1186.50 564.50 1211.50C552.83 1236.50 532.67 1255.83 504 1269.50C475.33 1283.17 439 1290 395 1290C275 1290 206 1226.67 188 1100C174.67 1008.67 168 864 168 666ZM430 1638C430 1553.33 467.83 1481 543.50 1421C619.17 1361 713.67 1331 827 1331C940.33 1331 1035 1361 1111 1421C1187 1481 1225 1553.33 1225 1638C1225 1682 1212.33 1718 1187 1746C1161.67 1774 1125.67 1788 1079 1788C1024.33 1787.33 984 1752.33 958 1683C931.33 1603 887.83 1562.83 827.50 1562.50C767.17 1562.17 723.33 1602.33 696 1683C670 1753 629.67 1788 575 1788C529 1788 493.33 1774 468 1746C442.67 1718 430 1682 430 1638Z"  horiz-adv-x="1626" vert-adv-y="2048"  />

      
      <glyph glyph-name="uni041A" unicode="&#x041A;" d="M164 657C164 433 173.67 276 193 186C205 62 280.67 0 420 0C538.67 0 598 77 598 231L598 420C598 486.67 620 520 664 520C700.67 520 737.33 490.67 774 432C786 412.67 814 372.33 858 311L950 182C999.33 108.67 1043 60 1081 36C1119 12 1175.67 0 1251 0C1390.33 0 1460 45.67 1460 137C1460 157.67 1454.50 179.67 1443.50 203C1432.50 226.33 1415.50 252.50 1392.50 281.50C1369.50 310.50 1347.33 336.33 1326 359L1237 453C1199 492.33 1169.67 523.67 1149 547L1127 568C1117 578.67 1110.33 586 1107 590L1091 609C1083 618.33 1077.67 625.67 1075 631C1072.33 636.33 1069.67 642.83 1067 650.50C1064.33 658.17 1063 665.33 1063 672C1063 698 1106 754 1192 840C1208.67 857.33 1233.67 882.33 1267 915C1300.33 947.67 1323.67 971.67 1337 987L1385 1042C1403.67 1064 1416.50 1083.50 1423.50 1100.50C1430.50 1117.50 1434 1134.33 1434 1151C1434 1201.67 1419.17 1237.17 1389.50 1257.50C1359.83 1277.83 1315 1288 1255 1288C1171.67 1288 1109.83 1278.17 1069.50 1258.50C1029.17 1238.83 990.67 1201 954 1145L893 1055L830 970L782 907C736.67 841.67 695.67 809 659 809C619.67 809 600 838.33 600 897L600 989C600 1107.67 586.83 1187.17 560.50 1227.50C534.17 1267.83 482.67 1288 406 1288C345.33 1288 296.17 1272 258.50 1240C220.83 1208 196 1149.67 184 1065C170.67 967.67 164 831.67 164 657Z"  horiz-adv-x="1542" vert-adv-y="2048"  />

      
      <glyph glyph-name="uni041B" unicode="&#x041B;" d="M61 164C61 46.67 135-12 283-12C318.33-12 349.33-7.67 376 1C402.67 9.67 423.17 19.50 437.50 30.50C451.83 41.50 464.50 58 475.50 80C486.50 102 493.67 118.67 497 130C500.33 141.33 504.67 159.33 510 184C512.67 196.67 520.83 236.83 534.50 304.50C548.17 372.17 561.17 431.83 573.50 483.50C585.83 535.17 601.67 593.67 621 659C664.33 809.67 711.33 885 762 885C810.67 884.33 857 809 901 659C920.33 593.67 936.17 535.17 948.50 483.50C960.83 431.83 973.83 372 987.50 304C1001.17 236 1009.33 196 1012 184C1018.67 155.33 1024.67 132.83 1030 116.50C1035.33 100.17 1045.83 80 1061.50 56C1077.17 32 1099.67 14.67 1129 4C1158.33-6.67 1195-12 1239-12C1285.67-12 1324.67-7 1356 3C1387.33 13 1410.17 27.67 1424.50 47C1438.83 66.33 1448.33 84.83 1453 102.50C1457.67 120.17 1460 140.67 1460 164C1460 247.33 1428.17 381.83 1364.50 567.50C1300.83 753.17 1234.33 902.67 1165 1016C1117.67 1095.33 1079.33 1151.67 1050 1185C1020.67 1218.33 983.50 1244.17 938.50 1262.50C893.50 1280.83 834 1290 760 1290C657.33 1290 581.33 1272.67 532 1238C482.67 1203.33 424 1129.33 356 1016C286.67 901.33 220.17 751.50 156.50 566.50C92.83 381.50 61 247.33 61 164Z"  horiz-adv-x="1521" vert-adv-y="2048"  />

      
      <glyph glyph-name="uni041C" unicode="&#x041C;" d="M102 164C102 117.33 116.50 78.33 145.50 47C174.50 15.67 233.33 0 322 0C395.33 0 446 10.17 474 30.50C502 50.83 520.67 89.67 530 147C531.33 174.33 533.17 234.50 535.50 327.50C537.83 420.50 541 491 545 539C555.67 689 574.67 764 602 764C626.67 764 650.67 736 674 680L799 367C829 294.33 858 246 886 222C914 198 958.67 186 1020 186C1082.67 186 1128 198 1156 222C1184 246 1213 294.33 1243 367L1368 680C1391.33 736 1415.33 764 1440 764C1467.33 764 1486.33 689 1497 539C1501 489.67 1504 418.83 1506 326.50C1508 234.17 1509.67 174.33 1511 147C1521 89.67 1539.83 50.83 1567.50 30.50C1595.17 10.17 1646 0 1720 0C1766.67 0 1805.67 5.17 1837 15.50C1868.33 25.83 1890.83 39.83 1904.50 57.50C1918.17 75.17 1927.33 92.17 1932 108.50C1936.67 124.83 1939 143.33 1939 164C1939 250 1923.67 382 1893 560C1862.33 738 1828 881.67 1790 991C1750.67 1101.67 1720 1172.67 1698 1204C1654 1261.33 1585.67 1290 1493 1290C1431.67 1290 1386.67 1284.83 1358 1274.50C1329.33 1264.17 1300.67 1240.67 1272 1204C1217.33 1116.67 1177 1042.33 1151 981C1134.33 941 1109 875.33 1075 784C1072.33 778.67 1069.67 771.67 1067 763C1064.33 754.33 1062 747.83 1060 743.50C1058 739.17 1056 734 1054 728C1052 722 1049.83 717.33 1047.50 714C1045.17 710.67 1042.67 707.50 1040 704.50C1037.33 701.50 1034.33 699.33 1031 698C1027.67 696.67 1024 696 1020 696C1016 696 1012 697.33 1008 700C998.67 705.33 985 733.33 967 784L891 981C879.67 1008.33 867.50 1035.33 854.50 1062C841.50 1088.67 830.67 1108.67 822 1122L791 1174L770 1204C741.33 1241.33 712.67 1265 684 1275C655.33 1285 610.33 1290 549 1290C456.33 1290 388 1261.33 344 1204C322 1172.67 291.33 1101.67 252 991C214 884.33 179.50 741.33 148.50 562C117.50 382.67 102 250 102 164Z"  horiz-adv-x="2041" vert-adv-y="2048"  />

      
      <glyph glyph-name="uni041D" unicode="&#x041D;" d="M168 666C168 450 174.67 291.33 188 190C196.67 127.33 219.33 80 256 48C292.67 16 339.67 0 397 0C435.67 0 467.83 6.17 493.50 18.50C519.17 30.83 538.83 45.17 552.50 61.50C566.17 77.83 576.83 101.33 584.50 132C592.17 162.67 596.67 190 598 214C599.33 238 600 269.67 600 309L600 428C600 459.33 604.83 479.83 614.50 489.50C624.17 499.17 644.67 504 676 504L928 504C958 504 978.17 499.17 988.50 489.50C998.83 479.83 1004 460 1004 430L1004 307C1004 255 1006 213.33 1010 182C1014 150.67 1022.50 119.67 1035.50 89C1048.50 58.33 1069.50 35.83 1098.50 21.50C1127.50 7.17 1165.33 0 1212 0C1268 0 1314.17 16 1350.50 48C1386.83 80 1409 127.33 1417 190C1431 291.33 1438 450 1438 666C1437.33 864 1430.33 1008.67 1417 1100C1399 1226.67 1330 1290 1210 1290C1126.67 1290 1071.50 1266.50 1044.50 1219.50C1017.50 1172.50 1004 1106.67 1004 1022L1004 901C1004 869.67 999.17 849.17 989.50 839.50C979.83 829.83 959.33 825 928 825L676 825C644.67 825 624.17 829.50 614.50 838.50C604.83 847.50 600 867.67 600 899L600 1024C600 1114 585 1180.83 555 1224.50C525 1268.17 471.67 1290 395 1290C276.33 1290 207.33 1226.67 188 1100C174.67 1008.67 168 864 168 666Z"  horiz-adv-x="1605" vert-adv-y="2048"  />

      
      <glyph glyph-name="uni041E" unicode="&#x041E;" d="M104 643C104 433 170.67 269.17 304 151.50C437.33 33.83 608.33-25 817-25C1025.67-25 1196.67 34.17 1330 152.50C1463.33 270.83 1530 435 1530 645C1530 853.67 1462.67 1017.50 1328 1136.50C1193.33 1255.50 1023 1315 817 1315C608.33 1315 437.33 1255.50 304 1136.50C170.67 1017.50 104 853 104 643ZM539 645C539 755.67 563.17 844.50 611.50 911.50C659.83 978.50 728.33 1012 817 1012C905.67 1012 974.33 978.50 1023 911.50C1071.67 844.50 1096 755.67 1096 645C1096 534.33 1071.67 445.67 1023 379C974.33 312.33 905.67 279 817 279C728.33 279 659.83 312.33 611.50 379C563.17 445.67 539 534.33 539 645Z"  horiz-adv-x="1634" vert-adv-y="2048"  />

      
      <glyph glyph-name="uni041F" unicode="&#x041F;" d="M168 666C168 450 174.67 291.33 188 190C196.67 127.33 219.33 80 256 48C292.67 16 339.67 0 397 0C435.67 0 467.83 6.17 493.50 18.50C519.17 30.83 539.17 45.50 553.50 62.50C567.83 79.50 578.83 103 586.50 133C594.17 163 598.67 190.33 600 215C601.33 239.67 602 271 602 309C602 370.33 601 459 599 575C597 691 596 772.33 596 819C596 876.33 608.67 917 634 941C659.33 965 711.67 977 791 977C863 977 913.33 964.33 942 939C970.67 913.67 985 873.67 985 819C985 769.67 984 687 982 571C980 455 979 367.67 979 309C979 271 979.67 239.67 981 215C982.33 190.33 986.83 163 994.50 133C1002.17 103 1013.17 79.50 1027.50 62.50C1041.83 45.50 1062 30.83 1088 18.50C1114 6.17 1146 0 1184 0C1241.33 0 1288.50 16 1325.50 48C1362.50 80 1385 127.33 1393 190C1406.33 291.33 1413 450 1413 666C1413 822.67 1406.33 933.67 1393 999C1375 1149.67 1291 1240 1141 1270C1053.67 1288.67 937 1298 791 1298C649.67 1298.67 532.67 1289.33 440 1270C290 1239.33 206 1149 188 999C174.67 890.33 168 779.33 168 666Z"  horiz-adv-x="1581" vert-adv-y="2048"  />

      
      <glyph glyph-name="uni0420" unicode="&#x0420;" d="M164 657C164 441 170.67 282.67 184 182C192.67 119.33 215.33 72 252 40C288.67 8 335.67-8 393-8C531-8.67 600 69.67 600 227C600 255.67 598.67 287.83 596 323.50C593.33 359.17 592 378.33 592 381C592 404.33 597.83 421 609.50 431C621.17 441 642 446 672 446C678.67 446 695.33 445 722 443C748.67 441 772.33 440 793 440C965 440 1091.83 478.67 1173.50 556C1255.17 633.33 1296 732 1296 852C1296 1003.33 1240.67 1114.17 1130 1184.50C1019.33 1254.83 876 1290 700 1290C570.67 1290.67 467.67 1281.33 391 1262C269.67 1234.67 200.67 1163.67 184 1049C170.67 955.67 164 825 164 657ZM578 860C578 929.33 584 976 596 1000C608 1024 636 1036 680 1036C809.33 1036 874.17 977.33 874.50 860C874.83 742.67 810 684 680 684C636 684 608 695.67 596 719C584 742.33 578 789.33 578 860Z"  horiz-adv-x="1398" vert-adv-y="2048"  />

      
      </font>
</defs>
</svg>
